<?xml version="1.0" encoding="utf-8"?><svg viewBox="0 0 2000 512" xmlns="http://www.w3.org/2000/svg" xmlns:xlink="http://www.w3.org/1999/xlink"><style>:root>svg{display:none}:root>svg:target{display:block}</style><svg viewBox="0 0 100 100" id="adv-community" xmlns="http://www.w3.org/2000/svg"><g data-name="social"><path data-name="elips" class="ag" d="M50 100c-13.36 0-25.91-5.2-35.36-14.64C5.2 75.91 0 63.36 0 50s5.2-25.91 14.64-35.36C24.09 5.2 36.64 0 50 0s25.91 5.2 35.36 14.64C94.8 24.08 100 36.64 100 50s-5.2 25.91-14.64 35.36C75.92 94.8 63.36 100 50 100m0-97.69C23.7 2.31 2.31 23.7 2.31 50S23.7 97.69 50 97.69 97.69 76.3 97.69 50 76.3 2.31 50 2.31"/><path data-name="animal" class="ag" d="M56.1 29.34c-.75.95-.78 1.43-.78 11v10.04h2.98l.07-9.39.11-9.42 2.35 2.82 2.35 2.79h2.05c1.16 0 2.39.18 2.8.37.93.51 1.83 2.27 1.83 3.67v1.1h8.58v1.83c0 1.58-.19 2.05-1.19 3.15-1.45 1.5-3.02 1.94-6.94 1.98-2.42 0-2.72.07-2.54.62.41 1.28 3.95 15.91 3.95 16.24 0 .22-1.64.37-3.92.37h-3.92v2.57h5.78c3.17 0 5.78-.07 5.78-.18s-.93-3.81-2.05-8.25-2.05-8.21-2.05-8.43c0-.18.86-.37 1.98-.37 4.59-.04 8.09-3.45 8.09-7.99 0-1.69-.97-3.56-2.09-4.07-.52-.22-2.24-.4-3.88-.4-2.72 0-2.95-.07-3.21-.84-.75-2.46-3.43-4.25-6.3-4.29-1.34 0-1.64-.18-3.24-2.13-2.87-3.45-3.21-3.74-4.59-3.74-.89 0-1.45.26-2.01.95Z"/><path data-name="login" class="ag" d="M37.16 29.38c-2.31.77-5.07 3.37-6.08 5.68-1.79 4.11-.93 8.47 2.39 11.95l1.68 1.76-1.68.62c-6.97 2.53-12.46 10.34-12.46 17.74v1.94H61.4l-.22-2.71c-.63-7.11-4.74-13.16-11-16.24-1.57-.77-2.95-1.43-3.02-1.5-.11-.04.41-.55 1.12-1.14s1.79-1.94 2.39-3.01c1.01-1.76 1.12-2.31 1.12-5.1s-.11-3.34-1.12-5.13c-1.23-2.24-3.92-4.44-6.15-5.1-1.9-.55-5.44-.48-7.35.22Zm7.87 3.15c.86.44 2.05 1.58 2.76 2.6 1.04 1.54 1.19 2.05 1.19 4.22s-.15 2.71-1.12 4.18c-1.94 3.01-5.07 4.33-8.54 3.56-1.6-.37-2.39-.81-3.8-2.2-2.83-2.79-3.32-6.53-1.27-9.57 2.5-3.74 6.9-4.88 10.78-2.79Zm2.2 19.28c5.48 2.09 9.81 7.26 10.85 12.94l.26 1.39H41.15c-19.61 0-17.71.4-16.48-3.59 1.72-5.35 6.26-9.64 12.01-11.29 2.54-.73 7.91-.44 10.55.55Z"/></g></svg><svg viewBox="0 0 100 100" id="adv-ecolog" xmlns="http://www.w3.org/2000/svg"><defs><style>.bf{stroke:currentColor;stroke-miterlimit:10}</style></defs><g id="bc" data-name="ecolog"><path id="bd" data-name="elips" class="be" d="M50 100c-13.36 0-25.91-5.2-35.36-14.64C5.2 75.91 0 63.36 0 50s5.2-25.91 14.64-35.36C24.09 5.2 36.64 0 50 0s25.91 5.2 35.36 14.64C94.8 24.08 100 36.64 100 50s-5.2 25.91-14.64 35.36C75.92 94.8 63.36 100 50 100m0-97.69C23.7 2.31 2.31 23.7 2.31 50S23.7 97.69 50 97.69 97.69 76.3 97.69 50 76.3 2.31 50 2.31"/><path class="bf" d="M52.56 81.14c-2.5 0-4.9-.6-7.3-1.5-5-1.9-14-5.3-14-5.3l.7-1.9s9.1 3.4 14 5.3c5 1.9 9.3 2.3 15.2-1.4 4.8-2.9 16.2-9.5 19.2-11.2-.2-.4-.6-.8-1.2-1.1-1-.5-2.4-.5-4.1.2-3.7 1.3-12.3 4.3-12.4 4.4l-.7-1.9c.1 0 8.8-3 12.4-4.4 2.3-.8 4.2-.8 5.7 0 1.9 1 2.4 3 2.4 3.1l.2.7-.6.4c-.1.1-14.4 8.3-19.9 11.6-3.6 2.1-6.7 3-9.6 3Zm3-21.4-.9-3.1c-4-13.5-9.6-23.1-17-29.1l1.3-1.5c7.2 5.9 12.7 14.9 16.8 27.4 3.8-8.2 11.8-14.5 12.2-14.8l1.2 1.6c-.1.1-9.7 7.7-12.6 16.5l-1 3Z"/><path class="bf" d="M41.06 45.24c-1.6 0-3.2-.4-4.6-1.3-5.2-3.2-8.6-12.8-4.5-27l.4-1.5 1.2 1c3.6 2.9 7 4 10.3 5.1 2.4.8 4.8 1.5 6.9 2.9 3.9 2.6 4.6 5.8 4.4 8.1-.3 3.8-3 7.4-5.4 8.6l-.8-1.9c1.6-.8 4-3.6 4.2-6.9.2-2.5-1-4.7-3.5-6.3-1.9-1.3-4.1-2-6.4-2.7-3-1-6.3-2-9.7-4.5-3.2 12.4-.4 20.6 4 23.3 3.1 1.9 7.1 1.1 10.9-2.4l1.3 1.5c-2.8 2.6-5.8 4-8.7 4Zm25.2 5.6c-1.7 0-3.8-.7-6.2-2.9l1.4-1.5c2.7 2.5 5.2 3 7.4 1.5 3.7-2.5 5.8-10.1 4.5-15.6-1.4 1.4-3.9 3.2-9.1 3.9-2.7.4-4.5 1.5-5.1 3.1-.7 1.8.1 4.4 1.9 6.5l-1.5 1.3c-2.3-2.7-3.2-5.9-2.3-8.5.6-1.7 2.3-3.8 6.7-4.4 6-.9 7.9-3.3 8.8-4.3.1-.1.2-.3.3-.3l1.1-1.2.6 1.5c2.5 6.4.1 16.3-4.7 19.6-.9.7-2.2 1.3-3.8 1.3Zm-33.4 28.3h-11v-26h11v26Zm-9-2h7v-22h-7v22Zm35.1-5.6h-15.1v-2h15.2c.9 0 1.7-1.2 1.7-2.1s-.9-2.2-1.8-2.2h-9l-.2-.5c-.1-.2-2.7-4.7-8.4-4.7h-8.5v-2h8.5c5.7 0 8.8 3.8 9.8 5.3h7.8c2.1 0 3.7 2.2 3.7 4.1s-1.6 4.1-3.7 4.1Z"/></g></svg><svg viewBox="0 0 100 100" id="adv-innovation" xmlns="http://www.w3.org/2000/svg"><defs><style>.cg{stroke:currentColor;stroke-miterlimit:10}</style></defs><g id="cc" data-name="innovation"><g id="cd" data-name="inn-img"><path class="cg" d="m82.94 33.9-4.38-.63c-.62-.09-1.04-.66-.96-1.27.04-.3.2-.56.44-.74l3.54-2.65c.5-.37.6-1.08.23-1.58l-4.05-5.4c-.37-.5-1.08-.6-1.58-.22l-3.54 2.65c-.5.38-1.2.28-1.58-.22-.18-.24-.26-.54-.22-.84l.63-4.38c.09-.62-.34-1.19-.95-1.27s-6.68-.95-6.68-.95c-.62-.09-1.19.34-1.27.95s-.63 4.38-.63 4.38c-.09.62-.66 1.04-1.27.96-.3-.04-.56-.2-.74-.44l-2.65-3.54c-.37-.5-1.08-.6-1.58-.22l-3.38 2.54c-1.53-.16-3.07-.16-4.6 0A21.38 21.38 0 0 0 28.87 40.2c-.03.32-.04.63-.06.95h-.34c-.53 0-.99.38-1.1.9l-.78 3.7-3.11-2.15c-.45-.31-1.05-.25-1.43.13l-3.38 3.38c-.38.38-.44.99-.13 1.43l2.14 3.11-3.7.78c-.52.11-.89.57-.88 1.1v4.5c0 .53.37.99.89 1.1l3.7.78-2.14 3.11c-.31.45-.25 1.05.13 1.43l3.38 3.38c.38.38.99.44 1.43.13l3.11-2.14.78 3.7c.11.52.57.9 1.1.9h4.5c.53 0 .99-.37 1.1-.89l.78-3.7 3.11 2.14c.45.31 1.05.25 1.43-.13l1.75-1.75v3.21c0 1.6.86 3.08 2.25 3.87v6.25c0 2.49 2.01 4.5 4.5 4.5h4.5c2.49 0 4.5-2.01 4.5-4.5v-6.25c1.39-.8 2.25-2.27 2.25-3.87v-4.45c.03-1.87 1.01-3.6 2.6-4.59.93-.61 1.82-1.28 2.65-2.02l-1.5-1.68c-.74.66-1.53 1.27-2.37 1.81a7.755 7.755 0 0 0-3.63 6.48v4.45c0 1.24-1.01 2.25-2.25 2.25h-9c-1.24 0-2.25-1.01-2.25-2.25v-4.55a7.572 7.572 0 0 0-3.57-6.35c-8.92-5.6-11.6-17.37-6-26.29 3.48-5.53 9.54-8.9 16.08-8.92-.02.04-.03.08-.04.12-.04.3.04.6.21.83l2.65 3.54c.28.36.31.86.07 1.25-.23.39-.67.61-1.13.54l-4.38-.63c-.62-.09-1.19.34-1.27.95l-.96 6.68c-.09.62.34 1.19.95 1.27l4.38.63c.62.09 1.04.66.95 1.27-.04.3-.2.56-.44.74l-3.54 2.65c-.5.37-.6 1.08-.23 1.58l4.05 5.4c.37.5 1.08.6 1.58.22l3.54-2.65a1.119 1.119 0 0 1 1.78 1.06l-.62 4.38c-.09.62.34 1.19.95 1.27l6.68.96h.16c.56 0 1.04-.41 1.12-.97l.62-4.38c.09-.62.66-1.04 1.27-.96.3.04.56.2.74.44l2.65 3.54c.37.5 1.08.6 1.58.23l5.4-4.05c.5-.37.6-1.08.23-1.58l-2.65-3.54a1.1 1.1 0 0 1-.07-1.25c.23-.4.67-.61 1.13-.54l4.38.62c.62.09 1.19-.34 1.27-.95s.95-6.68.95-6.68c.09-.62-.34-1.19-.95-1.27ZM45.65 73.77h9v2.25h-9v-2.25Zm0 4.5h9v1.13c0 1.24-1.01 2.25-2.25 2.25h-4.5c-1.24 0-2.25-1.01-2.25-2.25v-1.13Zm-8.96-19.4c.61.5 1.26.97 1.92 1.4 1.06.67 1.86 1.69 2.27 2.88l-2.41 2.41-2.34-1.61a2.243 2.243 0 0 0-3.13.58c-.17.25-.29.52-.35.81l-.59 2.81h-2.67l-.59-2.8a2.257 2.257 0 0 0-2.67-1.74c-.29.06-.57.18-.81.35l-2.34 1.61-2.05-2.05 1.61-2.34a2.25 2.25 0 0 0-1.38-3.48l-2.8-.59v-2.67l2.8-.59a2.243 2.243 0 0 0 1.73-2.67c-.06-.29-.18-.56-.34-.81l-1.61-2.34 2.05-2.05 2.34 1.61a2.251 2.251 0 0 0 3.48-1.39l.2-.94c.18 1.3.48 2.57.89 3.82-3.7.44-6.35 3.8-5.9 7.5.44 3.7 3.8 6.35 7.5 5.9a6.767 6.767 0 0 0 5.21-3.62Zm-1.75-1.59a4.49 4.49 0 0 1-5.75 2.71 4.49 4.49 0 0 1-2.71-5.75 4.478 4.478 0 0 1 4.24-2.97h.04c1.03 2.23 2.45 4.27 4.18 6.02Zm45.92-16.86-3.26-.47a3.376 3.376 0 0 0-3.82 2.86c-.13.89.1 1.79.64 2.5l1.98 2.64-3.6 2.7-1.98-2.63a3.39 3.39 0 0 0-4.73-.68c-.72.54-1.19 1.34-1.32 2.22l-.46 3.27-4.45-.64.47-3.26a3.376 3.376 0 0 0-2.86-3.82c-.89-.13-1.79.1-2.5.64l-2.64 1.98-2.7-3.6 2.64-1.98a3.39 3.39 0 0 0 .68-4.73 3.393 3.393 0 0 0-2.22-1.32l-3.26-.47.64-4.45 3.26.47c1.85.26 3.56-1.02 3.82-2.86.13-.89-.1-1.79-.64-2.5l-1.98-2.64 3.6-2.7 1.98 2.64a3.39 3.39 0 0 0 4.73.68c.72-.54 1.19-1.34 1.32-2.22l.47-3.26 4.45.64-.47 3.26a3.376 3.376 0 0 0 2.86 3.82c.89.13 1.79-.1 2.5-.64l2.64-1.98 2.7 3.6-2.64 1.98a3.39 3.39 0 0 0-.68 4.73c.54.72 1.34 1.19 2.22 1.32l3.26.47-.64 4.45Z"/><path class="cg" d="M64.48 26.81a9 9 0 1 0 .001 18.001 9 9 0 0 0-.001-18.001Zm0 15.75c-3.73 0-6.75-3.02-6.75-6.75s3.02-6.75 6.75-6.75 6.75 3.02 6.75 6.75-3.02 6.75-6.75 6.75ZM49.02 65.89h2.25v3.38h-2.25zm-3.79-11.05c-6.95-2.71-10.38-10.54-7.66-17.49 1.05-2.69 2.94-4.97 5.38-6.51l-1.2-1.9c-7.36 4.64-9.57 14.36-4.93 21.72 1.8 2.85 4.46 5.05 7.6 6.28a7.172 7.172 0 0 1 4.61 6.71h2.25c0-3.9-2.4-7.4-6.05-8.8Zm26.29 3.18h7.88v2.25h-7.88z"/><path class="cg" transform="rotate(-50.2 73.784 67.585)" d="M72.65 63.18h2.25v8.79h-2.25z"/><path class="cg" d="M64.77 67.02h2.25v7.88h-2.25z"/><path class="cg" transform="rotate(-14.04 22.007 35.521)" d="M17.38 34.39h9.28v2.25h-9.28z"/><path class="cg" transform="rotate(-54.46 23.71 25.953)" d="M22.58 21.11h2.25v9.68h-2.25z"/><path class="cg" transform="rotate(-14.34 31.004 20.898)" d="M29.87 16.24h2.25v9.29h-2.25z"/></g><path id="ce" data-name="elips" class="cf" d="M50 100c-13.36 0-25.91-5.2-35.36-14.64C5.2 75.91 0 63.36 0 50s5.2-25.91 14.64-35.36C24.09 5.2 36.64 0 50 0s25.91 5.2 35.36 14.64C94.8 24.08 100 36.64 100 50s-5.2 25.91-14.64 35.36C75.92 94.8 63.36 100 50 100m0-97.69C23.7 2.31 2.31 23.7 2.31 50S23.7 97.69 50 97.69 97.69 76.3 97.69 50 76.3 2.31 50 2.31"/></g></svg><svg viewBox="0 0 344.47 249.87" id="cloud-text" xmlns="http://www.w3.org/2000/svg"/><svg viewBox="0 0 100 100" id="icon-certfication" xmlns="http://www.w3.org/2000/svg"><g data-name="certification"><path data-name="elips" class="ee" d="M50 100c-13.36 0-25.91-5.2-35.36-14.64C5.2 75.91 0 63.36 0 50s5.2-25.91 14.64-35.36C24.09 5.2 36.64 0 50 0s25.91 5.2 35.36 14.64C94.8 24.08 100 36.64 100 50s-5.2 25.91-14.64 35.36C75.92 94.8 63.36 100 50 100m0-97.69C23.7 2.31 2.31 23.7 2.31 50S23.7 97.69 50 97.69 97.69 76.3 97.69 50 76.3 2.31 50 2.31"/><path d="M20.9 79.15v-58.3h14.5v8.1H29v16.9h6.3v8.1H29v17h6.3v8.2H20.9Zm2-56.3v54.3h10.5v-4.1H27v-21h6.3v-4.1H27v-21h6.3v-4.1H22.9Zm37.4 56.3h-8.1v-25.2h-4.3v25.2h-8.1v-58.3h20.6v58.3h-.1Zm-6.2-2h4.1v-54.3H41.6v54.3h4.1v-25.2H54v25.2h.1Zm0-29.3h-8.3v-20.9h8.3v20.9Zm-6.3-2h4.3v-16.9h-4.3v16.9Zm16.8 33.3v-58.3h14.5v8.1h-6.3v42h6.3v8.2H64.6Zm2-56.3v54.3h10.5v-4.1h-6.3v-46h6.3v-4.1H66.6v-.1Z" style="stroke:currentColor;stroke-miterlimit:10"/></g></svg><svg fill="none" viewBox="0 0 10 8" id="icon-check" xmlns="http://www.w3.org/2000/svg"><path d="M1 3.5 3.947 7 9 1" stroke="currentColor" stroke-linecap="round" stroke-linejoin="round"/></svg><svg viewBox="0 0 20 20" id="icon-close" xmlns="http://www.w3.org/2000/svg"><path d="M.293 18.291a1 1 0 1 0 1.414 1.414L10 11.413l8.292 8.292a1 1 0 1 0 1.414-1.414l-8.292-8.292 8.292-8.292A1 1 0 1 0 18.291.293L9.999 8.585 1.707.293A1 1 0 1 0 .293 1.707L8.585 10 .293 18.291z"/></svg><svg viewBox="0 0 163.861 163.861" xml:space="preserve" id="icon-play" xmlns="http://www.w3.org/2000/svg"><path d="M34.857 3.613C20.084-4.861 8.107 2.081 8.107 19.106v125.637c0 17.042 11.977 23.975 26.75 15.509L144.67 97.275c14.778-8.477 14.778-22.211 0-30.686L34.857 3.613z" fill="#fff"/></svg><svg viewBox="0 0 512 512" id="icon-preload" xmlns="http://www.w3.org/2000/svg"><path d="M304 48c0 26.51-21.49 48-48 48s-48-21.49-48-48 21.49-48 48-48 48 21.49 48 48zm-48 368c-26.51 0-48 21.49-48 48s21.49 48 48 48 48-21.49 48-48-21.49-48-48-48zm208-208c-26.51 0-48 21.49-48 48s21.49 48 48 48 48-21.49 48-48-21.49-48-48-48zM96 256c0-26.51-21.49-48-48-48S0 229.49 0 256s21.49 48 48 48 48-21.49 48-48zm12.922 99.078c-26.51 0-48 21.49-48 48s21.49 48 48 48 48-21.49 48-48c0-26.509-21.491-48-48-48zm294.156 0c-26.51 0-48 21.49-48 48s21.49 48 48 48 48-21.49 48-48c0-26.509-21.49-48-48-48zM108.922 60.922c-26.51 0-48 21.49-48 48s21.49 48 48 48 48-21.49 48-48-21.491-48-48-48z"/></svg><svg viewBox="0 0 496 130" id="logo-all-sprite" xmlns="http://www.w3.org/2000/svg"><defs><style>.jm{fill:var(--color-logo-paw)}</style></defs><g id="jb" data-name="letter"><path class="jo" d="M476.78 100.79c-4.8 2.4-10.2 3.6-16.19 3.6s-11.37-1.2-16.15-3.6c-4.78-2.4-8.59-6.01-11.45-10.81-2.86-4.8-4.29-10.46-4.29-16.97 0-9.85 2.96-17.68 8.89-23.49 5.93-5.81 13.61-8.71 23.03-8.71s17.12 2.91 23.08 8.71c5.96 5.81 8.94 13.64 8.94 23.49 0 6.51-1.45 12.17-4.33 16.97-2.89 4.8-6.74 8.41-11.54 10.81m-16.15-9.72c2.07 0 3.85-.91 5.34-2.74 1.49-1.83 2.55-4.07 3.19-6.75.64-2.68.96-5.53.96-8.58s-.33-6.04-1-8.8c-.67-2.77-1.75-5.12-3.24-7.07-1.49-1.95-3.24-2.92-5.25-2.92s-3.65.97-5.11 2.92c-1.46 1.95-2.55 4.32-3.29 7.12-.73 2.8-1.09 5.72-1.09 8.76s.35 5.9 1.05 8.58c.7 2.68 1.79 4.93 3.28 6.75 1.49 1.82 3.21 2.74 5.15 2.74" id="jc" data-name="o"/><path class="jo" d="M397.69 58.5c0-1.28-.53-2.37-1.6-3.28-1.06-.91-2.33-1.37-3.79-1.37-2.92 0-5.32 1.66-7.21 4.97-1.89 3.32-2.83 7.07-2.83 11.27 0 3.23.61 6.13 1.83 8.71 1.22 2.59 2.98 4.64 5.29 6.16 2.31 1.52 4.99 2.28 8.03 2.28 2.25 0 4.41-.44 6.48-1.32 2.07-.88 3.74-1.85 5.02-2.92 1.28-1.06 2.6-2.04 3.97-2.92 1.37-.88 2.57-1.32 3.6-1.32 1.34 0 2.49.53 3.47 1.6.97 1.06 1.46 2.17 1.46 3.33 0 1.28-.38 2.77-1.14 4.47-.76 1.71-1.96 3.51-3.6 5.43-1.64 1.92-3.56 3.68-5.75 5.29-2.19 1.61-4.91 2.95-8.17 4.01-3.25 1.06-6.67 1.6-10.26 1.6-4.74 0-9.14-.71-13.18-2.14-4.04-1.43-7.56-3.47-10.54-6.11-2.98-2.65-5.32-5.98-7.02-9.99-1.7-4.01-2.55-8.51-2.55-13.5 0-9.85 2.95-17.64 8.85-23.35 5.9-5.72 13.62-8.58 23.17-8.58 4.87 0 9.37.82 13.5 2.46 4.13 1.64 7.42 3.92 9.85 6.84 2.43 2.92 3.65 6.11 3.65 9.58 0 4.01-1.34 7.65-4.01 10.9-2.68 3.25-6.14 4.88-10.4 4.88-2.43 0-4.62-.67-6.57-2.01-1.95-1.34-2.92-3.25-2.92-5.75 0-1.15.56-2.77 1.69-4.84 1.12-2.07 1.69-3.53 1.69-4.38" id="jd" data-name="c"/><path class="jo" d="M347.7 90.16c0 4.74-.88 8.21-2.65 10.4-1.76 2.19-4.44 3.29-8.03 3.29s-6.13-.94-7.8-2.83c-1.67-1.88-2.51-5.26-2.51-10.13V52.3c0-7.3 3.44-10.95 10.31-10.95 3.53 0 6.19.67 7.98 2.01 1.79 1.34 2.69 4.05 2.69 8.12v38.68Z" id="je" data-name="i"/><path class="jo" d="M304.98 84.86c0 4.81-.43 8.63-1.28 11.46-.85 2.83-2.02 4.79-3.51 5.89s-3.45 1.65-5.88 1.65c-3.59 0-6.19-1.33-7.8-3.99-1.61-2.66-2.45-7.36-2.51-14.12l-.18-46.71h-7.75c-3.83 0-6.71-.84-8.62-2.53-1.92-1.69-2.87-4.68-2.87-8.99 0-2.62.38-4.68 1.14-6.2.76-1.52 1.9-2.59 3.42-3.23 1.52-.63 3.56-.95 6.11-.95h39.04c3.41 0 5.87.84 7.39 2.53 1.52 1.69 2.28 4.6 2.28 8.74 0 2.79-.44 4.96-1.32 6.52-.88 1.56-2.05 2.64-3.51 3.23-1.46.59-3.35.89-5.66.89h-8.48v45.83Z" id="jf" data-name="t"/><path class="jo" d="M190.85 89.07c1.82 0 3.34.14 4.56.41 1.21.27 2.17.73 2.87 1.37.7.64 1.19 1.38 1.46 2.24.27.85.41 1.92.41 3.19 0 3.1-.97 5.14-2.92 6.11-1.95.97-5.32 1.46-10.13 1.46h-34.21c-1.7 0-3.42-.5-5.15-1.5-1.73-1-3.18-2.4-4.33-4.2-1.16-1.79-1.73-3.69-1.73-5.7 0-1.82.11-3.33.32-4.52.21-1.19.71-2.42 1.5-3.69.79-1.28 1.51-2.29 2.15-3.06.64-.76 1.81-2.02 3.51-3.79l23.26-21.16H153.9c-4.07 0-7.02-.59-8.85-1.78-1.82-1.19-2.74-3.18-2.74-5.98 0-2.61.74-4.45 2.24-5.52 1.49-1.06 3.69-1.6 6.61-1.6h37.31c1.83 0 3.44.32 4.83.96 1.4.64 2.46 1.46 3.19 2.46s1.28 1.99 1.64 2.96c.36.97.55 1.89.55 2.74 0 1.09-.03 2.07-.09 2.92-.06.85-.23 1.66-.5 2.42s-.47 1.36-.59 1.78c-.12.43-.47 1-1.05 1.73-.58.73-.99 1.22-1.23 1.46s-.82.84-1.73 1.78c-.91.94-1.55 1.6-1.92 1.96l-26.64 24.54h25.91Z" id="jg" data-name="z"/></g><g id="jh" data-name="paw"><path class="jo" d="M243.9 107.73c-1.92 0-3.82-.29-5.66-.85-.23-.07-.46-.15-.68-.23-1.33-.46-2.61-1.08-3.8-1.84-1.33-.85-2.45-1.81-3.43-2.65-1.15-.98-2.15-1.82-2.95-2.11l-.13-.04c-.29-.09-.77-.14-1.43-.14-.52 0-1.07.03-1.65.06-.73.03-1.45.07-2.2.07-.34 0-.69 0-1.05-.02-1.87-.09-3.73-.45-5.53-1.08-3.43-1.2-6.47-3.34-8.58-6.03-2.04-2.6-3.29-5.89-3.52-9.27-.21-3.03.73-5.93 2.64-8.17 1.09-1.27 2.3-2.18 3.27-2.91l1.26-.95c-2.02-1.42-3.67-3.32-4.92-5.68-2.63-4.94-3.05-9.97-1.24-14.97.27-.76.64-1.52 1.11-2.32 2.3-3.89 6.27-6.22 10.6-6.22 1.4 0 2.79.24 4.14.71.55.19 1.1.43 1.63.69.61-2.56 1.75-5.03 3.4-7.37 1.02-1.45 2.34-2.7 3.92-3.72 2.01-1.3 4.27-1.98 6.55-1.98 1.26 0 2.5.21 3.68.62 2 .7 3.81 1.97 5.25 3.68 1.43 1.7 2.44 3.64 3.06 5.88.25-.17.49-.33.75-.49 2.26-1.42 4.67-2.2 7.16-2.34.24-.01.47-.02.71-.02 1.36 0 2.68.22 3.93.66 3.4 1.18 6 3.9 7.14 7.46.87 2.7.92 5.53.16 8.65-.34 1.41-.86 2.8-1.56 4.21.82.12 1.63.31 2.41.58.53.18 1.04.4 1.54.65 3.92 1.97 6.23 5.37 6.66 9.85.33 3.38-.49 6.58-2.57 10.05l-.13.21c-2.84 4.22-6.82 6.97-11.55 7.97-1.05.22-2.09.33-3.1.33h-.34c.07.26.13.51.19.75l.02.06c.2.66.52 1.75.48 3.02.23 2.6-.07 4.93-.9 6.91-1.12 2.67-3.55 4.59-5.39 5.72-2.71 1.68-5.94 2.56-9.33 2.56Zm-18.09-12.74c1.19 0 2.09.11 2.92.37l.22.07c1.7.59 3.08 1.77 4.54 3.01.91.78 1.85 1.58 2.91 2.25.86.55 1.8 1 2.78 1.35.17.06.34.11.5.17 1.36.42 2.78.63 4.21.63 2.48 0 4.82-.63 6.76-1.83 1.74-1.08 2.97-2.3 3.45-3.46.54-1.28.71-2.86.53-4.72 0-.08-.02-.23-.01-.31.04-.57-.13-1.12-.27-1.61l-.08-.27c-.14-.58-.28-1.1-.47-1.72l-1.44-4.68c-.16-.53 0-1.11.4-1.49a1.473 1.473 0 0 1 1.52-.28l2.22.89c.83.29 1.73.44 2.66.44.67 0 1.37-.08 2.08-.23 3.46-.73 6.39-2.76 8.48-5.87l.05-.08c1.49-2.48 2.09-4.72 1.87-7.01-.27-2.75-1.61-4.76-3.99-5.95-.31-.16-.63-.29-.95-.4-.84-.29-1.75-.44-2.69-.44-.71 0-1.46.09-2.21.26l-2.89.65c-.11.02-.21.04-.32.04-.5 0-.97-.26-1.24-.69-.32-.53-.27-1.21.13-1.68l1.91-2.27c.58-.69 1.11-1.43 1.57-2.19.84-1.46 1.42-2.85 1.75-4.23.54-2.23.52-4.19-.07-6-.67-2.08-2.16-3.66-4.1-4.34a7.22 7.22 0 0 0-2.34-.38c-.14 0-.28 0-.42.01-1.65.09-3.27.63-4.83 1.6-1.23.77-2.33 1.68-3.28 2.72l-1.65 1.79c-.28.3-.67.47-1.06.47a1.438 1.438 0 0 1-1.44-1.39l-.09-2.43c-.02-.41-.04-.83-.09-1.24-.31-2.58-1.14-4.64-2.53-6.3-.87-1.04-1.95-1.8-3.11-2.21-.67-.23-1.37-.35-2.08-.35-1.33 0-2.67.42-3.88 1.2-1.05.68-1.92 1.5-2.58 2.43-1.98 2.81-3 5.8-3.04 8.9l-.03 2.29a1.426 1.426 0 0 1-1.44 1.42c-.36 0-.72-.14-.99-.4L222 49.93a10.56 10.56 0 0 0-2.08-1.54c-.45-.25-.92-.46-1.39-.63a7.7 7.7 0 0 0-2.53-.44c-2.59 0-4.98 1.43-6.39 3.82-.31.53-.55 1.02-.72 1.49-1.31 3.64-.99 7.34.96 11.01 1.21 2.27 2.91 3.92 5.06 4.92.25.12.51.22.77.31l.13.04 1.81.64c.5.18.87.62.95 1.15.08.53-.14 1.06-.56 1.38l-5.88 4.4c-.87.65-1.76 1.32-2.49 2.18-1.07 1.25-1.6 2.91-1.48 4.65.16 2.41 1.05 4.75 2.49 6.58 1.54 1.96 3.79 3.54 6.35 4.43 1.36.47 2.75.75 4.15.81.28.01.56.02.83.02.67 0 1.31-.03 1.94-.06.68-.03 1.31-.06 1.9-.06Z"/><path class="jo" d="M275.08 70.27c.3 3.07-.46 5.98-2.38 9.17l-.11.18c-2.6 3.87-6.28 6.41-10.63 7.33-.95.2-1.89.3-2.79.3h-.01c-.79 0-1.57-.08-2.33-.23l.27.9c.22.7.38 1.29.51 1.85l.04.16c.19.62.47 1.57.42 2.64.23 2.4-.03 4.52-.79 6.31-.97 2.32-3.15 4.03-4.81 5.05-2.48 1.54-5.45 2.35-8.57 2.35-1.78 0-3.54-.26-5.23-.78-.21-.07-.42-.13-.62-.21-1.24-.43-2.42-1-3.51-1.7-1.24-.8-2.32-1.72-3.27-2.53-1.27-1.07-2.35-2-3.42-2.37l-.15-.05c-.47-.14-1.06-.21-1.89-.21-.54 0-1.11.03-1.72.06-1.01.05-2.03.09-3.11.04-1.73-.08-3.46-.42-5.13-1-3.16-1.1-5.98-3.08-7.92-5.55-1.86-2.37-3-5.38-3.22-8.47-.18-2.66.64-5.19 2.31-7.13.98-1.15 2.07-1.97 3.04-2.7l1.65-1.24 1.32-.99c-2.64-1.33-4.74-3.42-6.23-6.22-2.43-4.57-2.82-9.21-1.16-13.8.25-.68.57-1.36 1-2.08 2.04-3.45 5.54-5.51 9.35-5.51 1.24 0 2.47.22 3.67.63a13.11 13.11 0 0 1 3.16 1.65c.38-3.09 1.56-6.06 3.53-8.85.91-1.3 2.09-2.42 3.52-3.34 2.77-1.79 6.03-2.23 8.96-1.21 1.76.61 3.35 1.73 4.62 3.25 1.73 2.05 2.79 4.51 3.23 7.49.77-.66 1.59-1.26 2.45-1.81 2.06-1.28 4.23-1.99 6.48-2.12 1.43-.07 2.8.11 4.08.56 2.96 1.04 5.24 3.42 6.24 6.54.78 2.44.82 5.01.13 7.87-.41 1.7-1.1 3.38-2.1 5.12l-.06.1c-.14.22-.27.44-.42.65 1.52-.06 2.98.15 4.36.63.46.16.92.36 1.36.58 3.46 1.73 5.49 4.74 5.88 8.69ZM271 78.4c1.67-2.8 2.34-5.32 2.09-7.93-.32-3.24-1.97-5.69-4.79-7.11-.36-.18-.74-.34-1.12-.47-1.75-.61-3.68-.69-5.7-.24l-2.89.66 1.91-2.27c.63-.76 1.2-1.55 1.7-2.37.93-1.62 1.55-3.13 1.92-4.64.6-2.49.57-4.71-.09-6.79-.81-2.52-2.64-4.43-5-5.26a8.707 8.707 0 0 0-3.32-.45c-1.9.1-3.75.72-5.51 1.82-1.34.83-2.54 1.83-3.58 2.96l-1.65 1.79-.09-2.43c-.01-.46-.05-.91-.1-1.37-.34-2.86-1.28-5.16-2.86-7.05-1.04-1.24-2.33-2.15-3.74-2.64-2.36-.82-4.97-.46-7.23 1-1.2.78-2.2 1.73-2.97 2.81-2.15 3.05-3.26 6.32-3.3 9.71l-.02 2.29-1.66-1.57c-.73-.69-1.53-1.28-2.38-1.76-.52-.29-1.07-.53-1.62-.73-.99-.34-2-.52-3.01-.52-3.1 0-5.95 1.7-7.63 4.53-.36.61-.63 1.18-.84 1.74-1.45 4.04-1.1 8.13 1.05 12.18 1.36 2.55 3.28 4.42 5.72 5.55.3.13.6.25.9.36l.18.05 1.77.63-1.5 1.12c-.92.68-1.83 1.37-2.73 2.04l-1.65 1.24c-.88.67-1.88 1.42-2.72 2.4-1.33 1.54-1.97 3.56-1.83 5.69.18 2.69 1.18 5.31 2.79 7.37 1.71 2.18 4.2 3.92 7.01 4.9 1.49.52 3.02.82 4.56.89 1.02.05 1.98.01 2.91-.04.65-.03 1.26-.06 1.83-.06 1.04 0 1.81.1 2.5.31l.19.06c1.43.5 2.65 1.54 4.06 2.74.95.81 1.93 1.64 3.06 2.37.96.61 1.99 1.11 3.09 1.5.18.06.37.12.55.18 1.5.46 3.06.69 4.64.69 2.75 0 5.35-.71 7.52-2.05 1.41-.87 3.25-2.3 4.02-4.12.63-1.5.84-3.33.63-5.42v-.17c.05-.74-.16-1.46-.33-2.03l-.08-.25c-.12-.54-.27-1.08-.47-1.74l-1.44-4.68 1.94.78c.17.07.25.1.34.13.98.34 2.04.52 3.13.52h.01c.76 0 1.57-.09 2.38-.26 3.83-.81 7.07-3.05 9.38-6.48l.07-.11Z"/><path class="jo" d="M273.09 70.47c.25 2.61-.42 5.13-2.09 7.93l-.07.11c-2.31 3.43-5.55 5.67-9.38 6.48-.81.17-1.62.26-2.38.26h-.01a9.56 9.56 0 0 1-3.13-.52c-.09-.03-.17-.06-.34-.13l-1.94-.78 1.44 4.68c.2.66.35 1.2.47 1.74l.08.25c.17.57.38 1.29.33 2.03v.17c.21 2.09 0 3.92-.63 5.42-.77 1.82-2.61 3.25-4.02 4.12-2.17 1.34-4.77 2.05-7.52 2.05-1.58 0-3.14-.23-4.64-.69-.18-.06-.37-.12-.55-.18-1.1-.39-2.13-.89-3.09-1.5-1.13-.73-2.11-1.56-3.06-2.37-1.41-1.2-2.63-2.24-4.06-2.74l-.19-.06c-.69-.21-1.46-.31-2.5-.31-.57 0-1.18.03-1.83.06-.93.05-1.89.09-2.91.04a16.03 16.03 0 0 1-4.56-.89c-2.81-.98-5.3-2.72-7.01-4.9-1.61-2.06-2.61-4.68-2.79-7.37-.14-2.13.5-4.15 1.83-5.69.84-.98 1.84-1.73 2.72-2.4l1.65-1.24c.9-.67 1.81-1.36 2.73-2.04l1.5-1.12-1.77-.63-.18-.05c-.3-.11-.6-.23-.9-.36-2.44-1.13-4.36-3-5.72-5.55-2.15-4.05-2.5-8.14-1.05-12.18.21-.56.48-1.13.84-1.74 1.68-2.83 4.53-4.53 7.63-4.53 1.01 0 2.02.18 3.01.52.55.2 1.1.44 1.62.73.85.48 1.65 1.07 2.38 1.76l1.66 1.57.02-2.29c.04-3.39 1.15-6.66 3.3-9.71.77-1.08 1.77-2.03 2.97-2.81 2.26-1.46 4.87-1.82 7.23-1 1.41.49 2.7 1.4 3.74 2.64 1.58 1.89 2.52 4.19 2.86 7.05.05.46.09.91.1 1.37l.09 2.43 1.65-1.79c1.04-1.13 2.24-2.13 3.58-2.96 1.76-1.1 3.61-1.72 5.51-1.82 1.17-.06 2.28.09 3.32.45 2.36.83 4.19 2.74 5 5.26.66 2.08.69 4.3.09 6.79-.37 1.51-.99 3.02-1.92 4.64-.5.82-1.07 1.61-1.7 2.37l-1.91 2.27 2.89-.66c2.02-.45 3.95-.37 5.7.24.38.13.76.29 1.12.47 2.82 1.42 4.47 3.87 4.79 7.11Z"/><path class="jm" d="M270.81 70.69c-.23-2.37-1.36-4.19-3.53-5.28-1.7-.85-3.49-.93-5.3-.52-3.38.76-5.94 2.71-7.82 5.54-1.19 1.79-1.88 3.76-1.8 5.94.09 2.57 1.17 4.6 3.53 5.81 1.65.85 3.42.94 5.19.57 3.53-.75 6.13-2.81 7.95-5.52 1.3-2.17 2.01-4.24 1.78-6.54" fill="var(--color-logo-paw)"/><path class="js" d="M259.17 83.46c-1.26 0-2.44-.28-3.51-.83-2.43-1.25-3.71-3.35-3.8-6.24-.07-2.14.56-4.24 1.89-6.23 2.03-3.06 4.76-4.99 8.12-5.75 2.07-.47 3.96-.28 5.64.56 2.27 1.14 3.55 3.05 3.81 5.68.22 2.24-.35 4.35-1.85 6.85-2.08 3.1-4.86 5.03-8.28 5.75-.69.15-1.37.22-2.01.22Zm4.85-18.31c-.62 0-1.26.08-1.93.23-3.1.7-5.63 2.5-7.51 5.33-1.21 1.82-1.79 3.71-1.72 5.64.08 2.54 1.15 4.3 3.26 5.38.93.48 1.96.72 3.05.72.57 0 1.18-.07 1.81-.2 3.15-.67 5.72-2.45 7.64-5.31 1.37-2.28 1.9-4.2 1.7-6.21-.22-2.27-1.32-3.91-3.26-4.88-.93-.47-1.96-.71-3.04-.71Z"/><path class="jm" d="M223.37 65.72c1.4-1.88 1.86-4.04 1.86-6.07-.05-2.58-.78-5-2.03-6.97-.94-1.48-2.13-2.72-3.69-3.58-3.43-1.91-7.19-.91-9.18 2.44-.25.43-.48.88-.65 1.35-1.29 3.58-.85 7.02.91 10.32 1.06 1.99 2.57 3.58 4.66 4.55 2.99 1.38 6.16.59 8.11-2.04" fill="var(--color-logo-paw)"/><path class="jq" d="M218.19 68.93c-1.06 0-2.11-.24-3.14-.72-2.08-.96-3.72-2.56-4.9-4.77-1.9-3.58-2.22-7.19-.94-10.73.16-.45.39-.92.69-1.44 1.37-2.32 3.59-3.65 6.08-3.65 1.28 0 2.55.35 3.77 1.03 1.54.86 2.81 2.09 3.86 3.75 1.33 2.09 2.06 4.59 2.11 7.23 0 2.5-.66 4.64-1.96 6.38-1.4 1.88-3.38 2.91-5.58 2.91Zm-2.2-20.3c-2.13 0-4.04 1.15-5.22 3.16-.27.46-.47.87-.61 1.27-1.18 3.26-.88 6.6.88 9.92 1.07 2.01 2.56 3.46 4.43 4.33 2.74 1.27 5.71.52 7.5-1.88 1.17-1.57 1.76-3.51 1.76-5.77-.05-2.45-.73-4.77-1.96-6.7-.97-1.52-2.11-2.64-3.51-3.42-1.07-.6-2.17-.9-3.28-.9Z"/><path class="jm" d="M229.85 56.65c1.9 1.91 4.51 2.33 6.91 1.1.94-.48 1.74-1.14 2.44-1.93 1.58-1.77 2.51-3.86 2.98-5.9.42-1.93.53-3.63.32-5.34-.26-2.15-.92-4.16-2.34-5.86-2.1-2.5-5.23-2.96-7.97-1.19-.92.59-1.72 1.32-2.34 2.21-2.94 4.18-3.63 8.71-2.05 13.58.41 1.26 1.1 2.38 2.05 3.33" fill="var(--color-logo-paw)"/><path class="jr" d="M233.99 58.94c-1.67 0-3.22-.67-4.49-1.94a8.91 8.91 0 0 1-2.17-3.53c-1.62-5-.91-9.72 2.12-14.02.63-.89 1.46-1.68 2.48-2.34 1.16-.75 2.44-1.15 3.69-1.15 1.86 0 3.61.87 4.93 2.44 1.35 1.61 2.15 3.61 2.45 6.12.21 1.75.1 3.5-.33 5.51-.54 2.34-1.61 4.46-3.09 6.12-.78.87-1.65 1.55-2.59 2.04-.97.5-1.98.75-3 .75Zm1.63-21.98c-1.06 0-2.15.34-3.15.99-.91.59-1.65 1.29-2.21 2.08-2.84 4.03-3.51 8.45-1.99 13.14a7.891 7.891 0 0 0 1.93 3.13c1.07 1.08 2.38 1.65 3.78 1.65.86 0 1.72-.22 2.55-.64.84-.43 1.6-1.03 2.3-1.81 1.39-1.56 2.36-3.47 2.86-5.67.41-1.89.51-3.54.31-5.17-.28-2.31-1.01-4.14-2.23-5.59-1.13-1.34-2.61-2.08-4.17-2.08Z"/><path class="jm" d="M251.08 64.02c1.18-.1 2.29-.45 3.34-.98 2.55-1.29 4.43-3.26 5.83-5.56.76-1.33 1.32-2.61 1.65-3.99.45-1.85.54-3.7-.05-5.55-.87-2.71-3.16-4.28-6.01-4.13-1.61.09-3.08.63-4.43 1.47-3.11 1.95-5.19 4.71-6.35 8.16-.68 2.03-.88 4.11-.29 6.21.82 2.93 3.26 4.61 6.3 4.36" fill="var(--color-logo-paw)"/><path class="js" d="M250.48 64.55c-2.99 0-5.36-1.82-6.19-4.75-.57-2.05-.48-4.18.3-6.51 1.21-3.63 3.42-6.46 6.55-8.43 1.5-.94 3.07-1.46 4.67-1.55 3.1-.18 5.57 1.53 6.51 4.47.56 1.75.58 3.66.06 5.82-.33 1.36-.87 2.67-1.71 4.12-1.58 2.6-3.61 4.54-6.04 5.76-1.16.58-2.34.93-3.52 1.03-.22.02-.43.03-.64.03Zm5.75-20.24h-.36c-1.44.08-2.81.54-4.19 1.4-2.93 1.84-5 4.49-6.14 7.89-.71 2.13-.81 4.07-.29 5.92.7 2.52 2.66 4.02 5.22 4.02.18 0 .37 0 .56-.02 1.07-.09 2.1-.39 3.16-.92 2.25-1.14 4.15-2.95 5.62-5.38.78-1.35 1.29-2.58 1.6-3.85.48-1.98.47-3.7-.04-5.28-.76-2.37-2.69-3.79-5.15-3.79Z"/><path class="jm" d="M253.43 90.74c-.12-.53-.27-1.05-.43-1.57-.38-1.25-.77-2.5-1.15-3.75-.78-2.5-1.57-5-2.37-7.49-1.13-3.51-2-7.25-4.23-10.37-1.59-2.22-4.8-3.45-7.46-3.92-2.1-.38-4.54-.36-6.44.49-2.14.96-4.15 2.51-6.07 3.8-4.34 2.91-8.47 6.07-12.64 9.2-.84.63-1.68 1.27-2.35 2.05-.97 1.13-1.38 2.57-1.28 4.05.14 2.13.93 4.36 2.31 6.12 2.3 2.93 6.09 4.74 9.87 4.92 2.62.12 5.29-.47 7.8.3 3.09.95 5.17 3.7 7.88 5.43.95.61 1.99 1.08 3.07 1.41 3.45 1.06 7.35.7 10.28-1.11 1.15-.71 2.6-1.84 3.12-3.06.6-1.43.62-3.13.43-4.67.15-.42-.23-1.38-.33-1.81" fill="var(--color-logo-paw)"/><path class="js" d="M243.9 102.49c-1.4 0-2.78-.21-4.11-.62-1.15-.35-2.22-.85-3.19-1.47-1.02-.66-1.96-1.45-2.86-2.22-1.56-1.33-3.03-2.58-4.89-3.15-.87-.27-1.8-.38-3.04-.38-.63 0-1.26.03-1.89.06-.92.04-1.84.08-2.75.04-3.99-.19-7.92-2.14-10.24-5.11-1.4-1.78-2.26-4.05-2.42-6.39-.11-1.68.37-3.2 1.4-4.41.71-.83 1.59-1.49 2.43-2.12l1.58-1.19c3.58-2.69 7.27-5.47 11.08-8.02.44-.29.88-.6 1.32-.91 1.54-1.07 3.13-2.17 4.83-2.93 1.78-.8 4.24-.98 6.73-.53 1.67.3 5.76 1.3 7.78 4.13 1.88 2.64 2.82 5.7 3.72 8.65.19.62.38 1.24.58 1.86.8 2.49 1.59 4.99 2.37 7.49.39 1.25.77 2.5 1.16 3.76.16.53.31 1.06.44 1.6.02.1.06.23.1.37.19.64.33 1.17.24 1.59.23 1.92.07 3.54-.47 4.83-.62 1.47-2.34 2.69-3.32 3.3-1.88 1.17-4.16 1.78-6.58 1.78Zm-18.1-8.85c1.32 0 2.38.14 3.34.43 2.05.63 3.67 2.01 5.24 3.35.88.75 1.79 1.52 2.76 2.14.89.57 1.88 1.03 2.95 1.36 1.23.38 2.52.57 3.82.57 2.24 0 4.33-.56 6.05-1.63 1.49-.92 2.55-1.95 2.92-2.83.48-1.15.61-2.63.39-4.42v-.12l.02-.11c.05-.18-.14-.83-.22-1.1-.05-.17-.09-.32-.12-.43-.12-.52-.26-1.03-.42-1.54-.38-1.25-.77-2.5-1.15-3.75-.78-2.5-1.57-4.99-2.37-7.48-.2-.62-.39-1.24-.58-1.87-.88-2.88-1.79-5.85-3.58-8.36-1.25-1.75-3.92-3.14-7.14-3.72-2.28-.41-4.57-.25-6.15.46-1.61.72-3.16 1.8-4.66 2.84-.45.31-.9.62-1.34.92-3.78 2.54-7.47 5.31-11.03 7.99l-1.58 1.19c-.8.6-1.63 1.23-2.28 1.97-.86 1-1.26 2.28-1.16 3.69.14 2.11.95 4.24 2.2 5.84 2.15 2.74 5.79 4.55 9.5 4.72.88.04 1.77 0 2.66-.04.65-.03 1.29-.06 1.93-.06Z"/></g><g id="ji" data-name="logo"><path id="jj" data-name="logo-stroke" d="M75.47 37.47c-.18-.46-.18-.91.26-1.05.15-.05.32-.03.47 0 2.46.4 4.67 2.09 5.72 4.36.68 1.48.87 3.13 1.39 4.66.52 1.54 1.53 3.07 3.1 3.51 1.25.35 2.57-.08 3.76-.61 1.98-.88 3.82-2.06 5.46-3.48.6-.52 1.19-1.11 1.44-1.87.33-1.04-.06-2.17-.55-3.15-2.31-4.61-6.74-7.92-11.6-9.64-4.85-1.72-10.11-1.97-15.25-1.64-4.03.26-8.12.89-11.71 2.74-3.6 1.84-6.66 5.05-7.53 9-.29 1.32-.34 2.7-.85 3.95-.91 2.23-3.08 3.62-5.01 5.04a41.67 41.67 0 0 0-5.82 5.2c-.6.65-1.21 1.41-1.19 2.29.02.65.39 1.22.77 1.74 2.36 3.16 5.95 5.37 9.83 6.05 1.29.23 2.67.28 3.88-.23 1.06-.44 1.9-1.27 2.72-2.09 3.04-3.03 6.18-6.22 7.45-10.32.4-1.29.61-2.65 1.14-3.89.53-1.24 1.48-2.41 2.79-2.74 2.57-.65 3.3 2.48 4.61 3.97 1.68 1.91 3.91 3.18 6.24 4.13 3.82 1.57 6.65 5.11 11.29 5.3 1.89.08 2.54 2.29 2.75 4.16.54 4.77-2.79 9.73-8.11 10.71-4.58.84-7.05 3.1-8.41 7.39-1.23 3.88-3.83 7.01-6.55 10.01-.84.93-2.24 1.86-1.29 3.39.68 1.09 1.93.87 3.05.69 9.87-1.53 18.98.96 27.82 5.16 4.75 2.26 5.46 1.86 8.84-2.43 14.96-18.99 15.83-46.55.84-66.65C97.12 17.6 83.11 10.16 66.31 8.51c-17.67-1.74-33.09 4.13-45.87 16.01A55.266 55.266 0 0 0 5.93 46.7c-.9 2.55-1.91 5.07-3.11 8.12-.28.7-1.33.49-1.31-.27.1-4.3 1.19-7.77 2.46-11.16C13.78 17.29 39.4-.53 70.33 1.69c28.08 2.02 50.06 21.84 56.58 45.69 5.08 18.55 1.51 35.53-9.3 51.45-9.54 14.05-22.47 22.76-38.72 26.37-13.52 3-27.02 2.31-39.96-3.2-9.26-3.94-17.98-8.85-25.7-15.4-1.52-1.3-2.99-2.7-4.29-4.21-2.15-2.5-1.61-5.66 1.47-6.15 3.79-.61 5.8-1.98 6.96-5.78.62-2.06 3.12-2.8 5.67-1.44 3.18 1.7 6.03 3.78 8.65 6.21 1.03.96 2.23 2.09 3.7 2.29 1.41.19 2.56-.87 3.93-1.06 1.55-.21 3.14.09 4.68.32 4.88.75 10.64.88 14.76-2.3 6.06-4.67 11.83-9.35 14.14-17.21 1.16-3.94 4.58-5.71 8.6-6.42 3.21-.56 5.97-1.97 6.61-5.64.29-1.65 0-3.43-1.83-3.83-6.89-1.49-12.04-6.4-18.3-9.09-1.56-.67-1.93.54-2.21 1.83-.62 2.9-3.85 4.31-5.77 6.57-1.44 1.68-2.2 3.93-3.92 5.32-1.53 1.23-3.6 1.58-5.57 1.58-6.15 0-12.21-3.22-15.68-8.31-.54-.79-1.03-1.67-1.08-2.63-.08-1.56 1.03-2.91 2.15-4 3.73-3.59 8.56-6.32 10.79-10.99 1.05-2.2 1.43-4.69 2.64-6.8 1.42-2.48 3.85-4.21 6.36-5.56 10.38-5.6 23.51-5.71 33.99-.28 4.09 2.12 7.89 5.18 9.78 9.39 1.27 2.84 1.48 6.46-.5 8.86-1.21 1.46-3.03 2.25-4.74 3.08-2.71 1.32-5.65 2.91-8.56 2.15-2.85-.75-4.66-3.54-5.79-6.27-1.13-2.73-1.91-5.71-3.87-7.9-.2-.23-.4-.54-.52-.84" style="stroke-width:3px;stroke:currentColor;stroke-miterlimit:10"/></g><g id="jk" data-name="logo-hand"><path id="jl" data-name="logo-stroke-hand" d="M92.85 12.84c-.38.09-.58.5-.47.88.53 1.81 2.2 2.4 3.39 3.22 4.62 3.21 8.64 7.06 12.34 11.24 6.17 6.98 10.33 15.16 12.55 24.13 3.55 14.33.73 27.9-6.09 40.74-2.31 4.35-5.28 8.24-8.68 11.84-2 2.12-3.74 2.74-6.27 1.1-2.12-1.38-4.32-2.67-6.66-3.62-6.19-2.52-12.63-4.05-19.36-3.53-8.66.67-17.22 2.47-25.96 2.03-.87-.04-1.83.03-2.63.35-1.27.51-1.61 1.58-.6 2.61 1.63 1.66 3.76 2.41 6.05 2.48 3.12.1 6.21.05 9.32-.58 4.07-.82 8.1-.69 12.79 1.07.62.23.58 1.13-.06 1.3-8.39 2.25-15.9 3.91-23.82 3.54-5.77-.26-10.33-2.71-13.71-7.21-2.16-2.88-4.59-5.46-7.11-7.98-1.28-1.28-2.67-2.42-4.46-2.84-.58-.13-1.36-.06-1.84.25-.89.57-.75 1.54-.38 2.4.72 1.7 2.21 2.76 3.38 4.1 1.94 2.22 3.81 4.49 5.69 6.76.46.55-.16 1.36-.81 1.05-3.34-1.55-6.27-3.51-9.21-5.45-1.67-1.1-3.35-2.36-5.52-1.92-1.27.26-1.94 1.11-1.19 2.43.32.56.82 1.06 1.33 1.47 10.88 8.78 22.61 15.81 36.5 18.84 22.92 4.99 51.84-3.76 65.72-26.71 11.33-18.73 13.25-37.51 3.93-57.3-4.68-9.93-12.09-17.63-20.88-23.98-2.03-1.47-4.27-3.42-7.28-2.72" fill="var(--color-logo-paw)" style="stroke:currentColor;stroke-miterlimit:10;stroke-width:2px;fill:var(--color-logo-paw)"/></g></svg><svg data-name="Слой 1" viewBox="0 0 2368 515.29" id="logo-ozon" xmlns="http://www.w3.org/2000/svg"><path d="M258.61 0C115.79 0 0 115.79 0 257.64s115.79 257.64 258.61 257.64 259.57-114.83 259.57-257.64S402.39 0 258.61 0ZM2012.9 444.84c0 32.81-26.05 58.86-58.86 58.86s-58.86-26.05-58.86-58.86c0-135.09 0-274.05-1.93-409.14 0-35.7 18.33-28.95 38.6-11.58l316.51 252.82-1.93-206.5c0-32.81 26.05-58.86 58.86-58.86 31.84-.96 60.79 25.09 61.76 57.9l.96 407.21c0 40.53-23.16 28.95-39.56 15.44l-315.54-251.85v204.57ZM1447.43 0c198.78 0 359.93 115.79 359.93 257.64s-161.15 257.64-359.93 257.64-363.79-114.83-363.79-257.64S1247.69 0 1447.43 0Zm0 121.58c132.2 0 237.38 60.79 237.38 136.06S1579.63 393.7 1447.43 393.7s-240.27-60.79-240.27-136.06 107.11-136.06 240.27-136.06Zm-795.12 6.75c-31.84 0-58.86-26.05-58.86-58.86s27.02-58.86 58.86-58.86h370.54c23.16 0 37.63 11.58 16.4 38.6L784.5 385.98h205.54c32.81 0 58.86 27.02 58.86 58.86s-26.05 58.86-58.86 58.86l-405.28 1.93c-26.05 0-26.05-18.33-12.54-35.7l257.64-339.66-177.55-1.93Zm-393.7-6.75c-75.27 0-137.02 60.79-137.02 136.06s61.76 137.02 137.02 137.02S396.6 332.9 396.6 257.64s-61.76-136.06-137.99-136.06Z" style="fill-rule:evenodd" data-name="Слой_1"/></svg><svg data-name="Слой 1" viewBox="0 0 1763.9 208.63" id="logo-wildberries" xmlns="http://www.w3.org/2000/svg"><path d="m1614.16 159.72 28.95-16.97c7.99 22.96 24.96 33.94 49.91 33.94s36.94-10.98 36.94-26.95c0-7.99-2.99-13.98-9.98-17.97-5.99-4.99-17.97-8.98-34.94-14.97-19.96-4.99-28.95-8.98-42.92-17.97-12.98-8.98-18.97-21.96-18.97-40.93 0-16.97 5.99-30.95 18.97-41.93C1654.1 5.99 1670.07 0 1688.04 0c31.94 0 56.9 16.97 69.88 44.92l-27.95 15.97c-7.99-18.97-22.96-27.95-41.93-27.95-19.96 0-31.94 8.98-31.94 24.96 0 14.97 9.98 21.96 40.93 30.95 6.99 2.99 12.98 4.99 15.97 5.99 3.99 1 8.98 2.99 14.97 5.99 6.99 2 11.98 4.99 14.97 7.99 10.98 7.99 20.96 20.96 20.96 40.93 0 17.97-6.99 32.94-19.96 43.92-12.98 9.98-29.95 14.97-51.91 14.97-38.93 0-66.88-17.97-77.86-48.91Zm-111.8 13.97h88.84v30.95h-121.78V3.99h120.79v31.95h-87.85v51.91h80.86v30.94h-80.86v54.9zM1397.54 3.99h32.95v200.65h-32.95V3.99zm-60.89 200.65-41.93-72.87h-38.93v72.87h-32.94V3.99h80.86c17.97 0 32.94 5.99 44.92 18.97 12.98 11.98 18.97 27.95 18.97 45.92 0 24.96-15.97 48.91-39.93 57.9l45.92 77.86h-36.94Zm-80.86-169.7v67.88h46.92c17.97 0 31.94-14.97 31.94-33.94s-13.98-33.94-31.94-33.94h-46.92Zm-94.83 169.7-41.93-72.87h-39.93v72.87h-31.94V3.99h79.86c17.97 0 33.94 5.99 45.92 18.97s18.97 27.95 18.97 45.92c0 24.96-15.97 48.91-39.93 57.9l45.92 77.86h-36.94Zm-81.86-169.7v67.88h47.92c17.97 0 30.95-14.97 30.95-33.94s-13.98-33.94-30.95-33.94h-47.92ZM928.37 173.69h88.84v30.95H895.43V3.99h119.79v31.95h-86.85v51.91h79.86v30.94h-79.86v54.9zm-64.89-25.95c0 15.97-5.99 29.95-16.97 40.93-11.98 10.98-25.95 15.97-42.92 15.97h-85.85V3.99h78.86c16.97 0 30.95 5.99 41.93 15.97 11.98 10.98 16.97 23.96 16.97 39.93 0 17.97-6.99 30.95-19.96 40.93 17.97 8.98 27.95 25.95 27.95 46.92Zm-112.8-112.8v52.91h46.92c13.98 0 24.96-10.98 24.96-25.95s-10.98-26.95-24.96-26.95h-46.92Zm52.91 139.75c14.97 0 26.95-12.98 26.95-28.95s-11.98-27.95-26.95-27.95h-52.91v56.9h52.91ZM589.96 3.99c27.95 0 50.91 9.98 68.88 28.95 17.97 19.96 27.95 43.92 27.95 71.87s-9.98 51.91-27.95 70.88c-17.97 19.96-40.93 28.95-68.88 28.95H511.1V3.99h78.86Zm0 169.7c18.97 0 34.94-5.99 45.92-18.97 12.98-12.98 18.97-29.95 18.97-49.91s-5.99-35.94-18.97-48.91c-10.98-12.98-26.95-19.96-45.92-19.96h-45.92v137.75h45.92Zm-184.67 0h81.85v30.95H372.35V3.99h32.94v169.7zM299.47 3.99h33.94v200.65h-33.94V3.99zM53.91 204.64 0 3.99h34.94l41.92 154.73L120.79 3.99h32.94l44.92 155.73L239.58 3.99h35.94l-53.91 200.65h-40.93L137.76 54.9 94.83 204.64H53.91z" style="fill:#fefefe"/></svg><svg data-name="katman 1" viewBox="0 0 444 82.1" id="logo-yandex" xmlns="http://www.w3.org/2000/svg"><defs><clipPath id="ma"><path d="M125.8 80.2c22.2 0 40.1-17.9 40.1-40.1S148 0 125.8 0 85.7 17.9 85.7 40.1c-.2 22.2 18 40.1 40.1 40.1Z" style="fill:none"/></clipPath></defs><path d="M208.6 69.5h8.8l12.3-45.7v45.7h9.9V9.1H226l-12.3 44.3-12.3-44.3h-13.9v60.4h8.5V23.8l12.6 45.7ZM281 39.6c0-10.7-5.3-14.7-16.3-14.7-6.9 0-12.3 2.1-15.5 4v8.5c2.7-2.1 8.8-4.3 14.2-4.3 5.1 0 7.2 1.9 7.2 6.4v2.4H269c-15.8 0-23 5.3-23 14.2S251.3 70 259.4 70c6.1 0 8.8-1.9 10.7-4h.5c0 1.1.5 2.7.8 3.5h10.2c-.3-3.5-.5-7.2-.5-10.7-.1 0-.1-19.2-.1-19.2Zm-10.4 19.5c-1.3 1.9-3.7 3.5-7.5 3.5-4.3 0-6.4-2.7-6.4-6.4 0-5.1 3.5-6.9 12.6-6.9h1.6v9.9h-.3v-.1Zm28.3-33.4h-9.6v56.4h10.4V64.5c2.7 4 6.4 5.9 11 5.9 10.2 0 17.1-8 17.1-22.7S321.1 25 311.2 25c-4.8 0-8.8 2.1-11.8 6.4.1-.1-.5-5.7-.5-5.7Zm8.9 36.6c-5.3 0-8.3-4.5-8.3-14.4s2.9-14.7 8.8-14.7 8.5 4.5 8.5 14.4-2.9 14.7-9 14.7Zm52.3 7.2h11.8L355.3 46 370 25.7h-10.4L344.9 46V25.7h-10.4v43.8h10.4V48.1l15.2 21.4Zm46.5-2.9v-8.5c-3.2 2.1-8.5 4-13.6 4-7.5 0-10.4-3.5-11-11h24.8v-5.6c0-15.2-6.7-20.8-17.1-20.8-12.6 0-18.7 9.6-18.7 23 0 15.2 7.5 22.7 20.6 22.7 7.3-.1 12.1-1.7 15-3.8Zm-16.8-33.4c5.1 0 6.7 4.3 6.7 9.6v.8H382c.3-6.9 3-10.4 7.8-10.4Zm54.2.8v-8.3h-34.7V34h12.3v35.5H432V34h12Z"/><path d="M125.8 80.2c22.2 0 40.1-17.9 40.1-40.1S148 0 125.8 0 85.7 17.9 85.7 40.1c-.2 22.2 18 40.1 40.1 40.1Z" style="fill:#fed42b"/><circle cx="40.1" cy="40.1" r="40.1" style="fill:#fc3f1d"/><path d="M45.9 22.5h-4c-6.9 0-10.4 3.5-10.4 8.8 0 5.9 2.4 8.8 7.5 12.3l4 2.9-11.5 17.9h-9.4l11-16.3c-6.4-4.5-9.9-8.8-9.9-16.3 0-9.4 6.4-15.8 18.7-15.8h12.3v48.1h-8V22.4h-.3v.1Z" style="fill:#fff"/><path d="M106.1 22 70.8 68.2l9.4 10.7 26.2-34.7-2.7 19 14.7 5.1 17.9-28.6c-.8 5.3-2.1 17.6 9.6 21.4 18.4 5.6 34.5-27.5 41.9-44.3l-10.7-5.6c-8.3 17.4-21.1 36.6-26.2 35.3s-.5-17.6 2.4-28.1v-.3L137 12.5l-19.5 31.8 2.7-17.4-14.1-4.9Z" style="clip-path:url(#ma)"/></svg><svg viewBox="0 0 512 512" id="social-telegram" xmlns="http://www.w3.org/2000/svg"><path d="m484.689 98.231-69.417 327.37c-5.237 23.105-18.895 28.854-38.304 17.972L271.2 365.631l-51.034 49.086c-5.646 5.647-10.371 10.372-21.256 10.372l7.598-107.722L402.539 140.23c8.523-7.598-1.848-11.809-13.247-4.21L146.95 288.614 42.619 255.96c-22.694-7.086-23.104-22.695 4.723-33.579L455.423 65.166c18.893-7.085 35.427 4.209 29.266 33.065z"/></svg><svg viewBox="0 0 24 24" id="social-vk" xmlns="http://www.w3.org/2000/svg"><path d="M19.915 13.028c-.388-.49-.277-.708 0-1.146.005-.005 3.208-4.431 3.538-5.932l.002-.001c.164-.547 0-.949-.793-.949h-2.624c-.668 0-.976.345-1.141.731 0 0-1.336 3.198-3.226 5.271-.61.599-.892.791-1.225.791-.164 0-.419-.192-.419-.739V5.949c0-.656-.187-.949-.74-.949H9.161c-.419 0-.668.306-.668.591 0 .622.945.765 1.043 2.515v3.797c0 .832-.151.985-.486.985-.892 0-3.057-3.211-4.34-6.886-.259-.713-.512-1.001-1.185-1.001H.9c-.749 0-.9.345-.9.731 0 .682.892 4.073 4.148 8.553C6.318 17.343 9.374 19 12.154 19c1.671 0 1.875-.368 1.875-1.001 0-2.922-.151-3.198.686-3.198.388 0 1.056.192 2.616 1.667C19.114 18.217 19.407 19 20.405 19h2.624c.748 0 1.127-.368.909-1.094-.499-1.527-3.871-4.668-4.023-4.878z"/></svg></svg>