<svg data-name="Слой 2" xmlns="http://www.w3.org/2000/svg" viewBox="0 0 130.69 128.46">
    <g data-name="logo">
        <path data-name="logo-stroke"
              d="M75.47 37.47c-.18-.46-.18-.91.26-1.05.15-.05.32-.03.47 0 2.46.4 4.67 2.09 5.72 4.36.68 1.48.87 3.13 1.39 4.66.52 1.54 1.53 3.07 3.1 3.51 1.25.35 2.57-.08 3.76-.61 1.98-.88 3.82-2.06 5.46-3.48.6-.52 1.19-1.11 1.44-1.87.33-1.04-.06-2.17-.55-3.15-2.31-4.61-6.74-7.92-11.6-9.64-4.85-1.72-10.11-1.97-15.25-1.64-4.03.26-8.12.89-11.71 2.74-3.6 1.84-6.66 5.05-7.53 9-.29 1.32-.34 2.7-.85 3.95-.91 2.23-3.08 3.62-5.01 5.04a41.67 41.67 0 0 0-5.82 5.2c-.6.65-1.21 1.41-1.19 2.29.02.65.39 1.22.77 1.74 2.36 3.16 5.95 5.37 9.83 6.05 1.29.23 2.67.28 3.88-.23 1.06-.44 1.9-1.27 2.72-2.09 3.04-3.03 6.18-6.22 7.45-10.32.4-1.29.61-2.65 1.14-3.89.53-1.24 1.48-2.41 2.79-2.74 2.57-.65 3.3 2.48 4.61 3.97 1.68 1.91 3.91 3.18 6.24 4.13 3.82 1.57 6.65 5.11 11.29 5.3 1.89.08 2.54 2.29 2.75 4.16.54 4.77-2.79 9.73-8.11 10.71-4.58.84-7.05 3.1-8.41 7.39-1.23 3.88-3.83 7.01-6.55 10.01-.84.93-2.24 1.86-1.29 3.39.68 1.09 1.93.87 3.05.69 9.87-1.53 18.98.96 27.82 5.16 4.75 2.26 5.46 1.86 8.84-2.43 14.96-18.99 15.83-46.55.84-66.65C97.12 17.6 83.11 10.16 66.31 8.51c-17.67-1.74-33.09 4.13-45.87 16.01A55.266 55.266 0 0 0 5.93 46.7c-.9 2.55-1.91 5.07-3.11 8.12-.28.7-1.33.49-1.31-.27.1-4.3 1.19-7.77 2.46-11.16C13.78 17.29 39.4-.53 70.33 1.69c28.08 2.02 50.06 21.84 56.58 45.69 5.08 18.55 1.51 35.53-9.3 51.45-9.54 14.05-22.47 22.76-38.72 26.37-13.52 3-27.02 2.31-39.96-3.2-9.26-3.94-17.98-8.85-25.7-15.4-1.52-1.3-2.99-2.7-4.29-4.21-2.15-2.5-1.61-5.66 1.47-6.15 3.79-.61 5.8-1.98 6.96-5.78.62-2.06 3.12-2.8 5.67-1.44 3.18 1.7 6.03 3.78 8.65 6.21 1.03.96 2.23 2.09 3.7 2.29 1.41.19 2.56-.87 3.93-1.06 1.55-.21 3.14.09 4.68.32 4.88.75 10.64.88 14.76-2.3 6.06-4.67 11.83-9.35 14.14-17.21 1.16-3.94 4.58-5.71 8.6-6.42 3.21-.56 5.97-1.97 6.61-5.64.29-1.65 0-3.43-1.83-3.83-6.89-1.49-12.04-6.4-18.3-9.09-1.56-.67-1.93.54-2.21 1.83-.62 2.9-3.85 4.31-5.77 6.57-1.44 1.68-2.2 3.93-3.92 5.32-1.53 1.23-3.6 1.58-5.57 1.58-6.15 0-12.21-3.22-15.68-8.31-.54-.79-1.03-1.67-1.08-2.63-.08-1.56 1.03-2.91 2.15-4 3.73-3.59 8.56-6.32 10.79-10.99 1.05-2.2 1.43-4.69 2.64-6.8 1.42-2.48 3.85-4.21 6.36-5.56 10.38-5.6 23.51-5.71 33.99-.28 4.09 2.12 7.89 5.18 9.78 9.39 1.27 2.84 1.48 6.46-.5 8.86-1.21 1.46-3.03 2.25-4.74 3.08-2.71 1.32-5.65 2.91-8.56 2.15-2.85-.75-4.66-3.54-5.79-6.27-1.13-2.73-1.91-5.71-3.87-7.9-.2-.23-.4-.54-.52-.84"
              style="stroke-width:3px;stroke:currentColor;stroke-miterlimit:10"/>
    </g>
    <g data-name="logo-hand">
        <path data-name="logo-stroke-hand"
              d="M92.85 12.84c-.38.09-.58.5-.47.88.53 1.81 2.2 2.4 3.39 3.22 4.62 3.21 8.64 7.06 12.34 11.24 6.17 6.98 10.33 15.16 12.55 24.13 3.55 14.33.73 27.9-6.09 40.74-2.31 4.35-5.28 8.24-8.68 11.84-2 2.12-3.74 2.74-6.27 1.1-2.12-1.38-4.32-2.67-6.66-3.62-6.19-2.52-12.63-4.05-19.36-3.53-8.66.67-17.22 2.47-25.96 2.03-.87-.04-1.83.03-2.63.35-1.27.51-1.61 1.58-.6 2.61 1.63 1.66 3.76 2.41 6.05 2.48 3.12.1 6.21.05 9.32-.58 4.07-.82 8.1-.69 12.79 1.07.62.23.58 1.13-.06 1.3-8.39 2.25-15.9 3.91-23.82 3.54-5.77-.26-10.33-2.71-13.71-7.21-2.16-2.88-4.59-5.46-7.11-7.98-1.28-1.28-2.67-2.42-4.46-2.84-.58-.13-1.36-.06-1.84.25-.89.57-.75 1.54-.38 2.4.72 1.7 2.21 2.76 3.38 4.1 1.94 2.22 3.81 4.49 5.69 6.76.46.55-.16 1.36-.81 1.05-3.34-1.55-6.27-3.51-9.21-5.45-1.67-1.1-3.35-2.36-5.52-1.92-1.27.26-1.94 1.11-1.19 2.43.32.56.82 1.06 1.33 1.47 10.88 8.78 22.61 15.81 36.5 18.84 22.92 4.99 51.84-3.76 65.72-26.71 11.33-18.73 13.25-37.51 3.93-57.3-4.68-9.93-12.09-17.63-20.88-23.98-2.03-1.47-4.27-3.42-7.28-2.72"
              style="stroke:currentColor;stroke-miterlimit:10;fill:#7bc573;stroke-width:2px"/>
    </g>
</svg>
