<svg xmlns="http://www.w3.org/2000/svg" viewBox="0 0 100 100"><defs><style>.f{stroke:currentColor;stroke-miterlimit:10}</style></defs><g id="c" data-name="ecolog"><path id="d" data-name="elips" class="e" d="M50 100c-13.36 0-25.91-5.2-35.36-14.64C5.2 75.91 0 63.36 0 50s5.2-25.91 14.64-35.36C24.09 5.2 36.64 0 50 0s25.91 5.2 35.36 14.64C94.8 24.08 100 36.64 100 50s-5.2 25.91-14.64 35.36C75.92 94.8 63.36 100 50 100m0-97.69C23.7 2.31 2.31 23.7 2.31 50S23.7 97.69 50 97.69 97.69 76.3 97.69 50 76.3 2.31 50 2.31"/><path class="f" d="M52.56 81.14c-2.5 0-4.9-.6-7.3-1.5-5-1.9-14-5.3-14-5.3l.7-1.9s9.1 3.4 14 5.3c5 1.9 9.3 2.3 15.2-1.4 4.8-2.9 16.2-9.5 19.2-11.2-.2-.4-.6-.8-1.2-1.1-1-.5-2.4-.5-4.1.2-3.7 1.3-12.3 4.3-12.4 4.4l-.7-1.9c.1 0 8.8-3 12.4-4.4 2.3-.8 4.2-.8 5.7 0 1.9 1 2.4 3 2.4 3.1l.2.7-.6.4c-.1.1-14.4 8.3-19.9 11.6-3.6 2.1-6.7 3-9.6 3ZM55.56 59.74l-.9-3.1c-4-13.5-9.6-23.1-17-29.1l1.3-1.5c7.2 5.9 12.7 14.9 16.8 27.4 3.8-8.2 11.8-14.5 12.2-14.8l1.2 1.6c-.1.1-9.7 7.7-12.6 16.5l-1 3Z"/><path class="f" d="M41.06 45.24c-1.6 0-3.2-.4-4.6-1.3-5.2-3.2-8.6-12.8-4.5-27l.4-1.5 1.2 1c3.6 2.9 7 4 10.3 5.1 2.4.8 4.8 1.5 6.9 2.9 3.9 2.6 4.6 5.8 4.4 8.1-.3 3.8-3 7.4-5.4 8.6l-.8-1.9c1.6-.8 4-3.6 4.2-6.9.2-2.5-1-4.7-3.5-6.3-1.9-1.3-4.1-2-6.4-2.7-3-1-6.3-2-9.7-4.5-3.2 12.4-.4 20.6 4 23.3 3.1 1.9 7.1 1.1 10.9-2.4l1.3 1.5c-2.8 2.6-5.8 4-8.7 4ZM66.26 50.84c-1.7 0-3.8-.7-6.2-2.9l1.4-1.5c2.7 2.5 5.2 3 7.4 1.5 3.7-2.5 5.8-10.1 4.5-15.6-1.4 1.4-3.9 3.2-9.1 3.9-2.7.4-4.5 1.5-5.1 3.1-.7 1.8.1 4.4 1.9 6.5l-1.5 1.3c-2.3-2.7-3.2-5.9-2.3-8.5.6-1.7 2.3-3.8 6.7-4.4 6-.9 7.9-3.3 8.8-4.3.1-.1.2-.3.3-.3l1.1-1.2.6 1.5c2.5 6.4.1 16.3-4.7 19.6-.9.7-2.2 1.3-3.8 1.3ZM32.86 79.14h-11v-26h11v26Zm-9-2h7v-22h-7v22ZM58.96 71.54h-15.1v-2h15.2c.9 0 1.7-1.2 1.7-2.1s-.9-2.2-1.8-2.2h-9l-.2-.5c-.1-.2-2.7-4.7-8.4-4.7h-8.5v-2h8.5c5.7 0 8.8 3.8 9.8 5.3h7.8c2.1 0 3.7 2.2 3.7 4.1s-1.6 4.1-3.7 4.1Z"/></g></svg>