<svg xmlns="http://www.w3.org/2000/svg" viewBox="0 0 100 100"><g data-name="social"><path data-name="elips" class="g" d="M50 100c-13.36 0-25.91-5.2-35.36-14.64C5.2 75.91 0 63.36 0 50s5.2-25.91 14.64-35.36C24.09 5.2 36.64 0 50 0s25.91 5.2 35.36 14.64C94.8 24.08 100 36.64 100 50s-5.2 25.91-14.64 35.36C75.92 94.8 63.36 100 50 100m0-97.69C23.7 2.31 2.31 23.7 2.31 50S23.7 97.69 50 97.69 97.69 76.3 97.69 50 76.3 2.31 50 2.31"/><path data-name="animal" class="g" d="M56.1 29.34c-.75.95-.78 1.43-.78 11v10.04h2.98l.07-9.39.11-9.42 2.35 2.82 2.35 2.79h2.05c1.16 0 2.39.18 2.8.37.93.51 1.83 2.27 1.83 3.67v1.1h8.58v1.83c0 1.58-.19 2.05-1.19 3.15-1.45 1.5-3.02 1.94-6.94 1.98-2.42 0-2.72.07-2.54.62.41 1.28 3.95 15.91 3.95 16.24 0 .22-1.64.37-3.92.37h-3.92v2.57h5.78c3.17 0 5.78-.07 5.78-.18s-.93-3.81-2.05-8.25-2.05-8.21-2.05-8.43c0-.18.86-.37 1.98-.37 4.59-.04 8.09-3.45 8.09-7.99 0-1.69-.97-3.56-2.09-4.07-.52-.22-2.24-.4-3.88-.4-2.72 0-2.95-.07-3.21-.84-.75-2.46-3.43-4.25-6.3-4.29-1.34 0-1.64-.18-3.24-2.13-2.87-3.45-3.21-3.74-4.59-3.74-.89 0-1.45.26-2.01.95Z"/><path data-name="login" class="g" d="M37.16 29.38c-2.31.77-5.07 3.37-6.08 5.68-1.79 4.11-.93 8.47 2.39 11.95l1.68 1.76-1.68.62c-6.97 2.53-12.46 10.34-12.46 17.74v1.94H61.4l-.22-2.71c-.63-7.11-4.74-13.16-11-16.24-1.57-.77-2.95-1.43-3.02-1.5-.11-.04.41-.55 1.12-1.14s1.79-1.94 2.39-3.01c1.01-1.76 1.12-2.31 1.12-5.1s-.11-3.34-1.12-5.13c-1.23-2.24-3.92-4.44-6.15-5.1-1.9-.55-5.44-.48-7.35.22Zm7.87 3.15c.86.44 2.05 1.58 2.76 2.6 1.04 1.54 1.19 2.05 1.19 4.22s-.15 2.71-1.12 4.18c-1.94 3.01-5.07 4.33-8.54 3.56-1.6-.37-2.39-.81-3.8-2.2-2.83-2.79-3.32-6.53-1.27-9.57 2.5-3.74 6.9-4.88 10.78-2.79Zm2.2 19.28c5.48 2.09 9.81 7.26 10.85 12.94l.26 1.39H41.15c-19.61 0-17.71.4-16.48-3.59 1.72-5.35 6.26-9.64 12.01-11.29 2.54-.73 7.91-.44 10.55.55Z"/></g></svg>