<svg xmlns="http://www.w3.org/2000/svg" viewBox="0 0 100 100"><defs><style>.g{stroke:currentColor;stroke-miterlimit:10}</style></defs><g id="c" data-name="innovation"><g id="d" data-name="inn-img"><path class="g" d="m82.94 33.9-4.38-.63c-.62-.09-1.04-.66-.96-1.27.04-.3.2-.56.44-.74l3.54-2.65c.5-.37.6-1.08.23-1.58l-4.05-5.4c-.37-.5-1.08-.6-1.58-.22l-3.54 2.65c-.5.38-1.2.28-1.58-.22-.18-.24-.26-.54-.22-.84l.63-4.38c.09-.62-.34-1.19-.95-1.27s-6.68-.95-6.68-.95c-.62-.09-1.19.34-1.27.95s-.63 4.38-.63 4.38c-.09.62-.66 1.04-1.27.96-.3-.04-.56-.2-.74-.44l-2.65-3.54c-.37-.5-1.08-.6-1.58-.22l-3.38 2.54c-1.53-.16-3.07-.16-4.6 0A21.38 21.38 0 0 0 28.87 40.2c-.03.32-.04.63-.06.95h-.34c-.53 0-.99.38-1.1.9l-.78 3.7-3.11-2.15c-.45-.31-1.05-.25-1.43.13l-3.38 3.38c-.38.38-.44.99-.13 1.43l2.14 3.11-3.7.78c-.52.11-.89.57-.88 1.1v4.5c0 .53.37.99.89 1.1l3.7.78-2.14 3.11c-.31.45-.25 1.05.13 1.43l3.38 3.38c.38.38.99.44 1.43.13l3.11-2.14.78 3.7c.11.52.57.9 1.1.9h4.5c.53 0 .99-.37 1.1-.89l.78-3.7 3.11 2.14c.45.31 1.05.25 1.43-.13l1.75-1.75v3.21c0 1.6.86 3.08 2.25 3.87v6.25c0 2.49 2.01 4.5 4.5 4.5h4.5c2.49 0 4.5-2.01 4.5-4.5v-6.25c1.39-.8 2.25-2.27 2.25-3.87v-4.45c.03-1.87 1.01-3.6 2.6-4.59.93-.61 1.82-1.28 2.65-2.02l-1.5-1.68c-.74.66-1.53 1.27-2.37 1.81a7.755 7.755 0 0 0-3.63 6.48v4.45c0 1.24-1.01 2.25-2.25 2.25h-9c-1.24 0-2.25-1.01-2.25-2.25v-4.55a7.572 7.572 0 0 0-3.57-6.35c-8.92-5.6-11.6-17.37-6-26.29 3.48-5.53 9.54-8.9 16.08-8.92-.02.04-.03.08-.04.12-.04.3.04.6.21.83l2.65 3.54c.28.36.31.86.07 1.25-.23.39-.67.61-1.13.54l-4.38-.63c-.62-.09-1.19.34-1.27.95l-.96 6.68c-.09.62.34 1.19.95 1.27l4.38.63c.62.09 1.04.66.95 1.27-.04.3-.2.56-.44.74l-3.54 2.65c-.5.37-.6 1.08-.23 1.58l4.05 5.4c.37.5 1.08.6 1.58.22l3.54-2.65a1.119 1.119 0 0 1 1.78 1.06l-.62 4.38c-.09.62.34 1.19.95 1.27l6.68.96h.16c.56 0 1.04-.41 1.12-.97l.62-4.38c.09-.62.66-1.04 1.27-.96.3.04.56.2.74.44l2.65 3.54c.37.5 1.08.6 1.58.23l5.4-4.05c.5-.37.6-1.08.23-1.58l-2.65-3.54a1.1 1.1 0 0 1-.07-1.25c.23-.4.67-.61 1.13-.54l4.38.62c.62.09 1.19-.34 1.27-.95s.95-6.68.95-6.68c.09-.62-.34-1.19-.95-1.27ZM45.65 73.77h9v2.25h-9v-2.25Zm0 4.5h9v1.13c0 1.24-1.01 2.25-2.25 2.25h-4.5c-1.24 0-2.25-1.01-2.25-2.25v-1.13Zm-8.96-19.4c.61.5 1.26.97 1.92 1.4 1.06.67 1.86 1.69 2.27 2.88l-2.41 2.41-2.34-1.61a2.243 2.243 0 0 0-3.13.58c-.17.25-.29.52-.35.81l-.59 2.81h-2.67l-.59-2.8a2.257 2.257 0 0 0-2.67-1.74c-.29.06-.57.18-.81.35l-2.34 1.61-2.05-2.05 1.61-2.34a2.25 2.25 0 0 0-1.38-3.48l-2.8-.59v-2.67l2.8-.59a2.243 2.243 0 0 0 1.73-2.67c-.06-.29-.18-.56-.34-.81l-1.61-2.34 2.05-2.05 2.34 1.61a2.251 2.251 0 0 0 3.48-1.39l.2-.94c.18 1.3.48 2.57.89 3.82-3.7.44-6.35 3.8-5.9 7.5.44 3.7 3.8 6.35 7.5 5.9a6.767 6.767 0 0 0 5.21-3.62Zm-1.75-1.59a4.49 4.49 0 0 1-5.75 2.71 4.49 4.49 0 0 1-2.71-5.75 4.478 4.478 0 0 1 4.24-2.97h.04c1.03 2.23 2.45 4.27 4.18 6.02Zm45.92-16.86-3.26-.47a3.376 3.376 0 0 0-3.82 2.86c-.13.89.1 1.79.64 2.5l1.98 2.64-3.6 2.7-1.98-2.63a3.39 3.39 0 0 0-4.73-.68c-.72.54-1.19 1.34-1.32 2.22l-.46 3.27-4.45-.64.47-3.26a3.376 3.376 0 0 0-2.86-3.82c-.89-.13-1.79.1-2.5.64l-2.64 1.98-2.7-3.6 2.64-1.98a3.39 3.39 0 0 0 .68-4.73 3.393 3.393 0 0 0-2.22-1.32l-3.26-.47.64-4.45 3.26.47c1.85.26 3.56-1.02 3.82-2.86.13-.89-.1-1.79-.64-2.5l-1.98-2.64 3.6-2.7 1.98 2.64a3.39 3.39 0 0 0 4.73.68c.72-.54 1.19-1.34 1.32-2.22l.47-3.26 4.45.64-.47 3.26a3.376 3.376 0 0 0 2.86 3.82c.89.13 1.79-.1 2.5-.64l2.64-1.98 2.7 3.6-2.64 1.98a3.39 3.39 0 0 0-.68 4.73c.54.72 1.34 1.19 2.22 1.32l3.26.47-.64 4.45Z"/><path class="g" d="M64.48 26.81a9 9 0 1 0 .001 18.001 9 9 0 0 0-.001-18.001Zm0 15.75c-3.73 0-6.75-3.02-6.75-6.75s3.02-6.75 6.75-6.75 6.75 3.02 6.75 6.75-3.02 6.75-6.75 6.75ZM49.02 65.89h2.25v3.38h-2.25zM45.23 54.84c-6.95-2.71-10.38-10.54-7.66-17.49 1.05-2.69 2.94-4.97 5.38-6.51l-1.2-1.9c-7.36 4.64-9.57 14.36-4.93 21.72 1.8 2.85 4.46 5.05 7.6 6.28a7.172 7.172 0 0 1 4.61 6.71h2.25c0-3.9-2.4-7.4-6.05-8.8ZM71.52 58.02h7.88v2.25h-7.88z"/><path class="g" transform="rotate(-50.2 73.784 67.585)" d="M72.65 63.18h2.25v8.79h-2.25z"/><path class="g" d="M64.77 67.02h2.25v7.88h-2.25z"/><path class="g" transform="rotate(-14.04 22.007 35.521)" d="M17.38 34.39h9.28v2.25h-9.28z"/><path class="g" transform="rotate(-54.46 23.71 25.953)" d="M22.58 21.11h2.25v9.68h-2.25z"/><path class="g" transform="rotate(-14.34 31.004 20.898)" d="M29.87 16.24h2.25v9.29h-2.25z"/></g><path id="e" data-name="elips" class="f" d="M50 100c-13.36 0-25.91-5.2-35.36-14.64C5.2 75.91 0 63.36 0 50s5.2-25.91 14.64-35.36C24.09 5.2 36.64 0 50 0s25.91 5.2 35.36 14.64C94.8 24.08 100 36.64 100 50s-5.2 25.91-14.64 35.36C75.92 94.8 63.36 100 50 100m0-97.69C23.7 2.31 2.31 23.7 2.31 50S23.7 97.69 50 97.69 97.69 76.3 97.69 50 76.3 2.31 50 2.31"/></g></svg>