<svg xmlns="http://www.w3.org/2000/svg" viewBox="0 0 100 100"><defs><style>.f{stroke:currentColor;stroke-miterlimit:10}</style></defs><g id="c" data-name="certification"><path id="d" data-name="elips" class="e" d="M50 100c-13.36 0-25.91-5.2-35.36-14.64C5.2 75.91 0 63.36 0 50s5.2-25.91 14.64-35.36C24.09 5.2 36.64 0 50 0s25.91 5.2 35.36 14.64C94.8 24.08 100 36.64 100 50s-5.2 25.91-14.64 35.36C75.92 94.8 63.36 100 50 100m0-97.69C23.7 2.31 2.31 23.7 2.31 50S23.7 97.69 50 97.69 97.69 76.3 97.69 50 76.3 2.31 50 2.31"/><path class="f" d="M20.9 79.15v-58.3h14.5v8.1H29v16.9h6.3v8.1H29v17h6.3v8.2H20.9Zm2-56.3v54.3h10.5v-4.1H27v-21h6.3v-4.1H27v-21h6.3v-4.1H22.9ZM60.3 79.15h-8.1v-25.2h-4.3v25.2h-8.1v-58.3h20.6v58.3h-.1Zm-6.2-2h4.1v-54.3H41.6v54.3h4.1v-25.2H54v25.2h.1Zm0-29.3h-8.3v-20.9h8.3v20.9Zm-6.3-2h4.3v-16.9h-4.3v16.9ZM64.6 79.15v-58.3h14.5v8.1h-6.3v42h6.3v8.2H64.6Zm2-56.3v54.3h10.5v-4.1h-6.3v-46h6.3v-4.1H66.6v-.1Z"/></g></svg>