<svg id="a" data-name="Слой 1" xmlns="http://www.w3.org/2000/svg" viewBox="0 0 1763.9 208.63"><defs><style>.b{fill:#fefefe}</style></defs><path class="b" d="m1614.16 159.72 28.95-16.97c7.99 22.96 24.96 33.94 49.91 33.94s36.94-10.98 36.94-26.95c0-7.99-2.99-13.98-9.98-17.97-5.99-4.99-17.97-8.98-34.94-14.97-19.96-4.99-28.95-8.98-42.92-17.97-12.98-8.98-18.97-21.96-18.97-40.93 0-16.97 5.99-30.95 18.97-41.93C1654.1 5.99 1670.07 0 1688.04 0c31.94 0 56.9 16.97 69.88 44.92l-27.95 15.97c-7.99-18.97-22.96-27.95-41.93-27.95-19.96 0-31.94 8.98-31.94 24.96 0 14.97 9.98 21.96 40.93 30.95 6.99 2.99 12.98 4.99 15.97 5.99 3.99 1 8.98 2.99 14.97 5.99 6.99 2 11.98 4.99 14.97 7.99 10.98 7.99 20.96 20.96 20.96 40.93 0 17.97-6.99 32.94-19.96 43.92-12.98 9.98-29.95 14.97-51.91 14.97-38.93 0-66.88-17.97-77.86-48.91ZM1502.36 173.69h88.84v30.95h-121.78V3.99h120.79v31.95h-87.85v51.91h80.86v30.94h-80.86v54.9zM1397.54 3.99h32.95v200.65h-32.95V3.99zM1336.65 204.64l-41.93-72.87h-38.93v72.87h-32.94V3.99h80.86c17.97 0 32.94 5.99 44.92 18.97 12.98 11.98 18.97 27.95 18.97 45.92 0 24.96-15.97 48.91-39.93 57.9l45.92 77.86h-36.94Zm-80.86-169.7v67.88h46.92c17.97 0 31.94-14.97 31.94-33.94s-13.98-33.94-31.94-33.94h-46.92ZM1160.96 204.64l-41.93-72.87h-39.93v72.87h-31.94V3.99h79.86c17.97 0 33.94 5.99 45.92 18.97s18.97 27.95 18.97 45.92c0 24.96-15.97 48.91-39.93 57.9l45.92 77.86h-36.94Zm-81.86-169.7v67.88h47.92c17.97 0 30.95-14.97 30.95-33.94s-13.98-33.94-30.95-33.94h-47.92ZM928.37 173.69h88.84v30.95H895.43V3.99h119.79v31.95h-86.85v51.91h79.86v30.94h-79.86v54.9zM863.48 147.74c0 15.97-5.99 29.95-16.97 40.93-11.98 10.98-25.95 15.97-42.92 15.97h-85.85V3.99h78.86c16.97 0 30.95 5.99 41.93 15.97 11.98 10.98 16.97 23.96 16.97 39.93 0 17.97-6.99 30.95-19.96 40.93 17.97 8.98 27.95 25.95 27.95 46.92Zm-112.8-112.8v52.91h46.92c13.98 0 24.96-10.98 24.96-25.95s-10.98-26.95-24.96-26.95h-46.92Zm52.91 139.75c14.97 0 26.95-12.98 26.95-28.95s-11.98-27.95-26.95-27.95h-52.91v56.9h52.91ZM589.96 3.99c27.95 0 50.91 9.98 68.88 28.95 17.97 19.96 27.95 43.92 27.95 71.87s-9.98 51.91-27.95 70.88c-17.97 19.96-40.93 28.95-68.88 28.95H511.1V3.99h78.86Zm0 169.7c18.97 0 34.94-5.99 45.92-18.97 12.98-12.98 18.97-29.95 18.97-49.91s-5.99-35.94-18.97-48.91c-10.98-12.98-26.95-19.96-45.92-19.96h-45.92v137.75h45.92ZM405.29 173.69h81.85v30.95H372.35V3.99h32.94v169.7zM299.47 3.99h33.94v200.65h-33.94V3.99zM53.91 204.64 0 3.99h34.94l41.92 154.73L120.79 3.99h32.94l44.92 155.73L239.58 3.99h35.94l-53.91 200.65h-40.93L137.76 54.9 94.83 204.64H53.91z"/></svg>