<svg xmlns="http://www.w3.org/2000/svg" viewBox="0 0 496 130"><defs><style>.m{fill:var(--color-logo-paw)}</style></defs><g id="b" data-name="letter"><path class="o" d="M476.78 100.79c-4.8 2.4-10.2 3.6-16.19 3.6s-11.37-1.2-16.15-3.6c-4.78-2.4-8.59-6.01-11.45-10.81-2.86-4.8-4.29-10.46-4.29-16.97 0-9.85 2.96-17.68 8.89-23.49 5.93-5.81 13.61-8.71 23.03-8.71s17.12 2.91 23.08 8.71c5.96 5.81 8.94 13.64 8.94 23.49 0 6.51-1.45 12.17-4.33 16.97-2.89 4.8-6.74 8.41-11.54 10.81m-16.15-9.72c2.07 0 3.85-.91 5.34-2.74 1.49-1.83 2.55-4.07 3.19-6.75.64-2.68.96-5.53.96-8.58s-.33-6.04-1-8.8c-.67-2.77-1.75-5.12-3.24-7.07-1.49-1.95-3.24-2.92-5.25-2.92s-3.65.97-5.11 2.92c-1.46 1.95-2.55 4.32-3.29 7.12-.73 2.8-1.09 5.72-1.09 8.76s.35 5.9 1.05 8.58c.7 2.68 1.79 4.93 3.28 6.75 1.49 1.82 3.21 2.74 5.15 2.74" id="c" data-name="o"/><path class="o" d="M397.69 58.5c0-1.28-.53-2.37-1.6-3.28-1.06-.91-2.33-1.37-3.79-1.37-2.92 0-5.32 1.66-7.21 4.97-1.89 3.32-2.83 7.07-2.83 11.27 0 3.23.61 6.13 1.83 8.71 1.22 2.59 2.98 4.64 5.29 6.16 2.31 1.52 4.99 2.28 8.03 2.28 2.25 0 4.41-.44 6.48-1.32 2.07-.88 3.74-1.85 5.02-2.92 1.28-1.06 2.6-2.04 3.97-2.92 1.37-.88 2.57-1.32 3.6-1.32 1.34 0 2.49.53 3.47 1.6.97 1.06 1.46 2.17 1.46 3.33 0 1.28-.38 2.77-1.14 4.47-.76 1.71-1.96 3.51-3.6 5.43-1.64 1.92-3.56 3.68-5.75 5.29-2.19 1.61-4.91 2.95-8.17 4.01-3.25 1.06-6.67 1.6-10.26 1.6-4.74 0-9.14-.71-13.18-2.14-4.04-1.43-7.56-3.47-10.54-6.11-2.98-2.65-5.32-5.98-7.02-9.99-1.7-4.01-2.55-8.51-2.55-13.5 0-9.85 2.95-17.64 8.85-23.35 5.9-5.72 13.62-8.58 23.17-8.58 4.87 0 9.37.82 13.5 2.46 4.13 1.64 7.42 3.92 9.85 6.84 2.43 2.92 3.65 6.11 3.65 9.58 0 4.01-1.34 7.65-4.01 10.9-2.68 3.25-6.14 4.88-10.4 4.88-2.43 0-4.62-.67-6.57-2.01-1.95-1.34-2.92-3.25-2.92-5.75 0-1.15.56-2.77 1.69-4.84 1.12-2.07 1.69-3.53 1.69-4.38" id="d" data-name="c"/><path class="o" d="M347.7 90.16c0 4.74-.88 8.21-2.65 10.4-1.76 2.19-4.44 3.29-8.03 3.29s-6.13-.94-7.8-2.83c-1.67-1.88-2.51-5.26-2.51-10.13V52.3c0-7.3 3.44-10.95 10.31-10.95 3.53 0 6.19.67 7.98 2.01 1.79 1.34 2.69 4.05 2.69 8.12v38.68Z" id="e" data-name="i"/><path class="o" d="M304.98 84.86c0 4.81-.43 8.63-1.28 11.46-.85 2.83-2.02 4.79-3.51 5.89s-3.45 1.65-5.88 1.65c-3.59 0-6.19-1.33-7.8-3.99-1.61-2.66-2.45-7.36-2.51-14.12l-.18-46.71h-7.75c-3.83 0-6.71-.84-8.62-2.53-1.92-1.69-2.87-4.68-2.87-8.99 0-2.62.38-4.68 1.14-6.2.76-1.52 1.9-2.59 3.42-3.23 1.52-.63 3.56-.95 6.11-.95h39.04c3.41 0 5.87.84 7.39 2.53 1.52 1.69 2.28 4.6 2.28 8.74 0 2.79-.44 4.96-1.32 6.52-.88 1.56-2.05 2.64-3.51 3.23-1.46.59-3.35.89-5.66.89h-8.48v45.83Z" id="f" data-name="t"/><path class="o" d="M190.85 89.07c1.82 0 3.34.14 4.56.41 1.21.27 2.17.73 2.87 1.37.7.64 1.19 1.38 1.46 2.24.27.85.41 1.92.41 3.19 0 3.1-.97 5.14-2.92 6.11-1.95.97-5.32 1.46-10.13 1.46h-34.21c-1.7 0-3.42-.5-5.15-1.5-1.73-1-3.18-2.4-4.33-4.2-1.16-1.79-1.73-3.69-1.73-5.7 0-1.82.11-3.33.32-4.52.21-1.19.71-2.42 1.5-3.69.79-1.28 1.51-2.29 2.15-3.06.64-.76 1.81-2.02 3.51-3.79l23.26-21.16H153.9c-4.07 0-7.02-.59-8.85-1.78-1.82-1.19-2.74-3.18-2.74-5.98 0-2.61.74-4.45 2.24-5.52 1.49-1.06 3.69-1.6 6.61-1.6h37.31c1.83 0 3.44.32 4.83.96 1.4.64 2.46 1.46 3.19 2.46s1.28 1.99 1.64 2.96c.36.97.55 1.89.55 2.74 0 1.09-.03 2.07-.09 2.92-.06.85-.23 1.66-.5 2.42s-.47 1.36-.59 1.78c-.12.43-.47 1-1.05 1.73-.58.73-.99 1.22-1.23 1.46s-.82.84-1.73 1.78c-.91.94-1.55 1.6-1.92 1.96l-26.64 24.54h25.91Z" id="g" data-name="z"/></g><g id="h" data-name="paw"><path class="o" d="M243.9 107.73c-1.92 0-3.82-.29-5.66-.85-.23-.07-.46-.15-.68-.23-1.33-.46-2.61-1.08-3.8-1.84-1.33-.85-2.45-1.81-3.43-2.65-1.15-.98-2.15-1.82-2.95-2.11l-.13-.04c-.29-.09-.77-.14-1.43-.14-.52 0-1.07.03-1.65.06-.73.03-1.45.07-2.2.07-.34 0-.69 0-1.05-.02-1.87-.09-3.73-.45-5.53-1.08-3.43-1.2-6.47-3.34-8.58-6.03-2.04-2.6-3.29-5.89-3.52-9.27-.21-3.03.73-5.93 2.64-8.17 1.09-1.27 2.3-2.18 3.27-2.91l1.26-.95c-2.02-1.42-3.67-3.32-4.92-5.68-2.63-4.94-3.05-9.97-1.24-14.97.27-.76.64-1.52 1.11-2.32 2.3-3.89 6.27-6.22 10.6-6.22 1.4 0 2.79.24 4.14.71.55.19 1.1.43 1.63.69.61-2.56 1.75-5.03 3.4-7.37 1.02-1.45 2.34-2.7 3.92-3.72 2.01-1.3 4.27-1.98 6.55-1.98 1.26 0 2.5.21 3.68.62 2 .7 3.81 1.97 5.25 3.68 1.43 1.7 2.44 3.64 3.06 5.88.25-.17.49-.33.75-.49 2.26-1.42 4.67-2.2 7.16-2.34.24-.01.47-.02.71-.02 1.36 0 2.68.22 3.93.66 3.4 1.18 6 3.9 7.14 7.46.87 2.7.92 5.53.16 8.65-.34 1.41-.86 2.8-1.56 4.21.82.12 1.63.31 2.41.58.53.18 1.04.4 1.54.65 3.92 1.97 6.23 5.37 6.66 9.85.33 3.38-.49 6.58-2.57 10.05l-.13.21c-2.84 4.22-6.82 6.97-11.55 7.97-1.05.22-2.09.33-3.1.33h-.34c.07.26.13.51.19.75l.02.06c.2.66.52 1.75.48 3.02.23 2.6-.07 4.93-.9 6.91-1.12 2.67-3.55 4.59-5.39 5.72-2.71 1.68-5.94 2.56-9.33 2.56Zm-18.09-12.74c1.19 0 2.09.11 2.92.37l.22.07c1.7.59 3.08 1.77 4.54 3.01.91.78 1.85 1.58 2.91 2.25.86.55 1.8 1 2.78 1.35.17.06.34.11.5.17 1.36.42 2.78.63 4.21.63 2.48 0 4.82-.63 6.76-1.83 1.74-1.08 2.97-2.3 3.45-3.46.54-1.28.71-2.86.53-4.72 0-.08-.02-.23-.01-.31.04-.57-.13-1.12-.27-1.61l-.08-.27c-.14-.58-.28-1.1-.47-1.72l-1.44-4.68c-.16-.53 0-1.11.4-1.49a1.473 1.473 0 0 1 1.52-.28l2.22.89c.83.29 1.73.44 2.66.44.67 0 1.37-.08 2.08-.23 3.46-.73 6.39-2.76 8.48-5.87l.05-.08c1.49-2.48 2.09-4.72 1.87-7.01-.27-2.75-1.61-4.76-3.99-5.95-.31-.16-.63-.29-.95-.4-.84-.29-1.75-.44-2.69-.44-.71 0-1.46.09-2.21.26l-2.89.65c-.11.02-.21.04-.32.04-.5 0-.97-.26-1.24-.69-.32-.53-.27-1.21.13-1.68l1.91-2.27c.58-.69 1.11-1.43 1.57-2.19.84-1.46 1.42-2.85 1.75-4.23.54-2.23.52-4.19-.07-6-.67-2.08-2.16-3.66-4.1-4.34a7.22 7.22 0 0 0-2.34-.38c-.14 0-.28 0-.42.01-1.65.09-3.27.63-4.83 1.6-1.23.77-2.33 1.68-3.28 2.72l-1.65 1.79c-.28.3-.67.47-1.06.47a1.438 1.438 0 0 1-1.44-1.39l-.09-2.43c-.02-.41-.04-.83-.09-1.24-.31-2.58-1.14-4.64-2.53-6.3-.87-1.04-1.95-1.8-3.11-2.21-.67-.23-1.37-.35-2.08-.35-1.33 0-2.67.42-3.88 1.2-1.05.68-1.92 1.5-2.58 2.43-1.98 2.81-3 5.8-3.04 8.9l-.03 2.29a1.426 1.426 0 0 1-1.44 1.42c-.36 0-.72-.14-.99-.4L222 49.93a10.56 10.56 0 0 0-2.08-1.54c-.45-.25-.92-.46-1.39-.63a7.7 7.7 0 0 0-2.53-.44c-2.59 0-4.98 1.43-6.39 3.82-.31.53-.55 1.02-.72 1.49-1.31 3.64-.99 7.34.96 11.01 1.21 2.27 2.91 3.92 5.06 4.92.25.12.51.22.77.31l.13.04 1.81.64c.5.18.87.62.95 1.15.08.53-.14 1.06-.56 1.38l-5.88 4.4c-.87.65-1.76 1.32-2.49 2.18-1.07 1.25-1.6 2.91-1.48 4.65.16 2.41 1.05 4.75 2.49 6.58 1.54 1.96 3.79 3.54 6.35 4.43 1.36.47 2.75.75 4.15.81.28.01.56.02.83.02.67 0 1.31-.03 1.94-.06.68-.03 1.31-.06 1.9-.06Z"/><path class="o" d="M275.08 70.27c.3 3.07-.46 5.98-2.38 9.17l-.11.18c-2.6 3.87-6.28 6.41-10.63 7.33-.95.2-1.89.3-2.79.3h-.01c-.79 0-1.57-.08-2.33-.23l.27.9c.22.7.38 1.29.51 1.85l.04.16c.19.62.47 1.57.42 2.64.23 2.4-.03 4.52-.79 6.31-.97 2.32-3.15 4.03-4.81 5.05-2.48 1.54-5.45 2.35-8.57 2.35-1.78 0-3.54-.26-5.23-.78-.21-.07-.42-.13-.62-.21-1.24-.43-2.42-1-3.51-1.7-1.24-.8-2.32-1.72-3.27-2.53-1.27-1.07-2.35-2-3.42-2.37l-.15-.05c-.47-.14-1.06-.21-1.89-.21-.54 0-1.11.03-1.72.06-1.01.05-2.03.09-3.11.04-1.73-.08-3.46-.42-5.13-1-3.16-1.1-5.98-3.08-7.92-5.55-1.86-2.37-3-5.38-3.22-8.47-.18-2.66.64-5.19 2.31-7.13.98-1.15 2.07-1.97 3.04-2.7l1.65-1.24 1.32-.99c-2.64-1.33-4.74-3.42-6.23-6.22-2.43-4.57-2.82-9.21-1.16-13.8.25-.68.57-1.36 1-2.08 2.04-3.45 5.54-5.51 9.35-5.51 1.24 0 2.47.22 3.67.63a13.11 13.11 0 0 1 3.16 1.65c.38-3.09 1.56-6.06 3.53-8.85.91-1.3 2.09-2.42 3.52-3.34 2.77-1.79 6.03-2.23 8.96-1.21 1.76.61 3.35 1.73 4.62 3.25 1.73 2.05 2.79 4.51 3.23 7.49.77-.66 1.59-1.26 2.45-1.81 2.06-1.28 4.23-1.99 6.48-2.12 1.43-.07 2.8.11 4.08.56 2.96 1.04 5.24 3.42 6.24 6.54.78 2.44.82 5.01.13 7.87-.41 1.7-1.1 3.38-2.1 5.12l-.06.1c-.14.22-.27.44-.42.65 1.52-.06 2.98.15 4.36.63.46.16.92.36 1.36.58 3.46 1.73 5.49 4.74 5.88 8.69ZM271 78.4c1.67-2.8 2.34-5.32 2.09-7.93-.32-3.24-1.97-5.69-4.79-7.11-.36-.18-.74-.34-1.12-.47-1.75-.61-3.68-.69-5.7-.24l-2.89.66 1.91-2.27c.63-.76 1.2-1.55 1.7-2.37.93-1.62 1.55-3.13 1.92-4.64.6-2.49.57-4.71-.09-6.79-.81-2.52-2.64-4.43-5-5.26a8.707 8.707 0 0 0-3.32-.45c-1.9.1-3.75.72-5.51 1.82-1.34.83-2.54 1.83-3.58 2.96l-1.65 1.79-.09-2.43c-.01-.46-.05-.91-.1-1.37-.34-2.86-1.28-5.16-2.86-7.05-1.04-1.24-2.33-2.15-3.74-2.64-2.36-.82-4.97-.46-7.23 1-1.2.78-2.2 1.73-2.97 2.81-2.15 3.05-3.26 6.32-3.3 9.71l-.02 2.29-1.66-1.57c-.73-.69-1.53-1.28-2.38-1.76-.52-.29-1.07-.53-1.62-.73-.99-.34-2-.52-3.01-.52-3.1 0-5.95 1.7-7.63 4.53-.36.61-.63 1.18-.84 1.74-1.45 4.04-1.1 8.13 1.05 12.18 1.36 2.55 3.28 4.42 5.72 5.55.3.13.6.25.9.36l.18.05 1.77.63-1.5 1.12c-.92.68-1.83 1.37-2.73 2.04l-1.65 1.24c-.88.67-1.88 1.42-2.72 2.4-1.33 1.54-1.97 3.56-1.83 5.69.18 2.69 1.18 5.31 2.79 7.37 1.71 2.18 4.2 3.92 7.01 4.9 1.49.52 3.02.82 4.56.89 1.02.05 1.98.01 2.91-.04.65-.03 1.26-.06 1.83-.06 1.04 0 1.81.1 2.5.31l.19.06c1.43.5 2.65 1.54 4.06 2.74.95.81 1.93 1.64 3.06 2.37.96.61 1.99 1.11 3.09 1.5.18.06.37.12.55.18 1.5.46 3.06.69 4.64.69 2.75 0 5.35-.71 7.52-2.05 1.41-.87 3.25-2.3 4.02-4.12.63-1.5.84-3.33.63-5.42v-.17c.05-.74-.16-1.46-.33-2.03l-.08-.25c-.12-.54-.27-1.08-.47-1.74l-1.44-4.68 1.94.78c.17.07.25.1.34.13.98.34 2.04.52 3.13.52h.01c.76 0 1.57-.09 2.38-.26 3.83-.81 7.07-3.05 9.38-6.48l.07-.11Z"/><path class="o" d="M273.09 70.47c.25 2.61-.42 5.13-2.09 7.93l-.07.11c-2.31 3.43-5.55 5.67-9.38 6.48-.81.17-1.62.26-2.38.26h-.01a9.56 9.56 0 0 1-3.13-.52c-.09-.03-.17-.06-.34-.13l-1.94-.78 1.44 4.68c.2.66.35 1.2.47 1.74l.08.25c.17.57.38 1.29.33 2.03v.17c.21 2.09 0 3.92-.63 5.42-.77 1.82-2.61 3.25-4.02 4.12-2.17 1.34-4.77 2.05-7.52 2.05-1.58 0-3.14-.23-4.64-.69-.18-.06-.37-.12-.55-.18-1.1-.39-2.13-.89-3.09-1.5-1.13-.73-2.11-1.56-3.06-2.37-1.41-1.2-2.63-2.24-4.06-2.74l-.19-.06c-.69-.21-1.46-.31-2.5-.31-.57 0-1.18.03-1.83.06-.93.05-1.89.09-2.91.04a16.03 16.03 0 0 1-4.56-.89c-2.81-.98-5.3-2.72-7.01-4.9-1.61-2.06-2.61-4.68-2.79-7.37-.14-2.13.5-4.15 1.83-5.69.84-.98 1.84-1.73 2.72-2.4l1.65-1.24c.9-.67 1.81-1.36 2.73-2.04l1.5-1.12-1.77-.63-.18-.05c-.3-.11-.6-.23-.9-.36-2.44-1.13-4.36-3-5.72-5.55-2.15-4.05-2.5-8.14-1.05-12.18.21-.56.48-1.13.84-1.74 1.68-2.83 4.53-4.53 7.63-4.53 1.01 0 2.02.18 3.01.52.55.2 1.1.44 1.62.73.85.48 1.65 1.07 2.38 1.76l1.66 1.57.02-2.29c.04-3.39 1.15-6.66 3.3-9.71.77-1.08 1.77-2.03 2.97-2.81 2.26-1.46 4.87-1.82 7.23-1 1.41.49 2.7 1.4 3.74 2.64 1.58 1.89 2.52 4.19 2.86 7.05.05.46.09.91.1 1.37l.09 2.43 1.65-1.79c1.04-1.13 2.24-2.13 3.58-2.96 1.76-1.1 3.61-1.72 5.51-1.82 1.17-.06 2.28.09 3.32.45 2.36.83 4.19 2.74 5 5.26.66 2.08.69 4.3.09 6.79-.37 1.51-.99 3.02-1.92 4.64-.5.82-1.07 1.61-1.7 2.37l-1.91 2.27 2.89-.66c2.02-.45 3.95-.37 5.7.24.38.13.76.29 1.12.47 2.82 1.42 4.47 3.87 4.79 7.11Z"/><path class="m" d="M270.81 70.69c-.23-2.37-1.36-4.19-3.53-5.28-1.7-.85-3.49-.93-5.3-.52-3.38.76-5.94 2.71-7.82 5.54-1.19 1.79-1.88 3.76-1.8 5.94.09 2.57 1.17 4.6 3.53 5.81 1.65.85 3.42.94 5.19.57 3.53-.75 6.13-2.81 7.95-5.52 1.3-2.17 2.01-4.24 1.78-6.54" fill="var(--color-logo-paw)"/><path class="s" d="M259.17 83.46c-1.26 0-2.44-.28-3.51-.83-2.43-1.25-3.71-3.35-3.8-6.24-.07-2.14.56-4.24 1.89-6.23 2.03-3.06 4.76-4.99 8.12-5.75 2.07-.47 3.96-.28 5.64.56 2.27 1.14 3.55 3.05 3.81 5.68.22 2.24-.35 4.35-1.85 6.85-2.08 3.1-4.86 5.03-8.28 5.75-.69.15-1.37.22-2.01.22Zm4.85-18.31c-.62 0-1.26.08-1.93.23-3.1.7-5.63 2.5-7.51 5.33-1.21 1.82-1.79 3.71-1.72 5.64.08 2.54 1.15 4.3 3.26 5.38.93.48 1.96.72 3.05.72.57 0 1.18-.07 1.81-.2 3.15-.67 5.72-2.45 7.64-5.31 1.37-2.28 1.9-4.2 1.7-6.21-.22-2.27-1.32-3.91-3.26-4.88-.93-.47-1.96-.71-3.04-.71Z"/><path class="m" d="M223.37 65.72c1.4-1.88 1.86-4.04 1.86-6.07-.05-2.58-.78-5-2.03-6.97-.94-1.48-2.13-2.72-3.69-3.58-3.43-1.91-7.19-.91-9.18 2.44-.25.43-.48.88-.65 1.35-1.29 3.58-.85 7.02.91 10.32 1.06 1.99 2.57 3.58 4.66 4.55 2.99 1.38 6.16.59 8.11-2.04" fill="var(--color-logo-paw)"/><path class="q" d="M218.19 68.93c-1.06 0-2.11-.24-3.14-.72-2.08-.96-3.72-2.56-4.9-4.77-1.9-3.58-2.22-7.19-.94-10.73.16-.45.39-.92.69-1.44 1.37-2.32 3.59-3.65 6.08-3.65 1.28 0 2.55.35 3.77 1.03 1.54.86 2.81 2.09 3.86 3.75 1.33 2.09 2.06 4.59 2.11 7.23 0 2.5-.66 4.64-1.96 6.38-1.4 1.88-3.38 2.91-5.58 2.91Zm-2.2-20.3c-2.13 0-4.04 1.15-5.22 3.16-.27.46-.47.87-.61 1.27-1.18 3.26-.88 6.6.88 9.92 1.07 2.01 2.56 3.46 4.43 4.33 2.74 1.27 5.71.52 7.5-1.88 1.17-1.57 1.76-3.51 1.76-5.77-.05-2.45-.73-4.77-1.96-6.7-.97-1.52-2.11-2.64-3.51-3.42-1.07-.6-2.17-.9-3.28-.9Z"/><path class="m" d="M229.85 56.65c1.9 1.91 4.51 2.33 6.91 1.1.94-.48 1.74-1.14 2.44-1.93 1.58-1.77 2.51-3.86 2.98-5.9.42-1.93.53-3.63.32-5.34-.26-2.15-.92-4.16-2.34-5.86-2.1-2.5-5.23-2.96-7.97-1.19-.92.59-1.72 1.32-2.34 2.21-2.94 4.18-3.63 8.71-2.05 13.58.41 1.26 1.1 2.38 2.05 3.33" fill="var(--color-logo-paw)"/><path class="r" d="M233.99 58.94c-1.67 0-3.22-.67-4.49-1.94a8.91 8.91 0 0 1-2.17-3.53c-1.62-5-.91-9.72 2.12-14.02.63-.89 1.46-1.68 2.48-2.34 1.16-.75 2.44-1.15 3.69-1.15 1.86 0 3.61.87 4.93 2.44 1.35 1.61 2.15 3.61 2.45 6.12.21 1.75.1 3.5-.33 5.51-.54 2.34-1.61 4.46-3.09 6.12-.78.87-1.65 1.55-2.59 2.04-.97.5-1.98.75-3 .75Zm1.63-21.98c-1.06 0-2.15.34-3.15.99-.91.59-1.65 1.29-2.21 2.08-2.84 4.03-3.51 8.45-1.99 13.14a7.891 7.891 0 0 0 1.93 3.13c1.07 1.08 2.38 1.65 3.78 1.65.86 0 1.72-.22 2.55-.64.84-.43 1.6-1.03 2.3-1.81 1.39-1.56 2.36-3.47 2.86-5.67.41-1.89.51-3.54.31-5.17-.28-2.31-1.01-4.14-2.23-5.59-1.13-1.34-2.61-2.08-4.17-2.08Z"/><path class="m" d="M251.08 64.02c1.18-.1 2.29-.45 3.34-.98 2.55-1.29 4.43-3.26 5.83-5.56.76-1.33 1.32-2.61 1.65-3.99.45-1.85.54-3.7-.05-5.55-.87-2.71-3.16-4.28-6.01-4.13-1.61.09-3.08.63-4.43 1.47-3.11 1.95-5.19 4.71-6.35 8.16-.68 2.03-.88 4.11-.29 6.21.82 2.93 3.26 4.61 6.3 4.36" fill="var(--color-logo-paw)"/><path class="s" d="M250.48 64.55c-2.99 0-5.36-1.82-6.19-4.75-.57-2.05-.48-4.18.3-6.51 1.21-3.63 3.42-6.46 6.55-8.43 1.5-.94 3.07-1.46 4.67-1.55 3.1-.18 5.57 1.53 6.51 4.47.56 1.75.58 3.66.06 5.82-.33 1.36-.87 2.67-1.71 4.12-1.58 2.6-3.61 4.54-6.04 5.76-1.16.58-2.34.93-3.52 1.03-.22.02-.43.03-.64.03Zm5.75-20.24h-.36c-1.44.08-2.81.54-4.19 1.4-2.93 1.84-5 4.49-6.14 7.89-.71 2.13-.81 4.07-.29 5.92.7 2.52 2.66 4.02 5.22 4.02.18 0 .37 0 .56-.02 1.07-.09 2.1-.39 3.16-.92 2.25-1.14 4.15-2.95 5.62-5.38.78-1.35 1.29-2.58 1.6-3.85.48-1.98.47-3.7-.04-5.28-.76-2.37-2.69-3.79-5.15-3.79Z"/><path class="m" d="M253.43 90.74c-.12-.53-.27-1.05-.43-1.57-.38-1.25-.77-2.5-1.15-3.75-.78-2.5-1.57-5-2.37-7.49-1.13-3.51-2-7.25-4.23-10.37-1.59-2.22-4.8-3.45-7.46-3.92-2.1-.38-4.54-.36-6.44.49-2.14.96-4.15 2.51-6.07 3.8-4.34 2.91-8.47 6.07-12.64 9.2-.84.63-1.68 1.27-2.35 2.05-.97 1.13-1.38 2.57-1.28 4.05.14 2.13.93 4.36 2.31 6.12 2.3 2.93 6.09 4.74 9.87 4.92 2.62.12 5.29-.47 7.8.3 3.09.95 5.17 3.7 7.88 5.43.95.61 1.99 1.08 3.07 1.41 3.45 1.06 7.35.7 10.28-1.11 1.15-.71 2.6-1.84 3.12-3.06.6-1.43.62-3.13.43-4.67.15-.42-.23-1.38-.33-1.81" fill="var(--color-logo-paw)"/><path class="s" d="M243.9 102.49c-1.4 0-2.78-.21-4.11-.62-1.15-.35-2.22-.85-3.19-1.47-1.02-.66-1.96-1.45-2.86-2.22-1.56-1.33-3.03-2.58-4.89-3.15-.87-.27-1.8-.38-3.04-.38-.63 0-1.26.03-1.89.06-.92.04-1.84.08-2.75.04-3.99-.19-7.92-2.14-10.24-5.11-1.4-1.78-2.26-4.05-2.42-6.39-.11-1.68.37-3.2 1.4-4.41.71-.83 1.59-1.49 2.43-2.12l1.58-1.19c3.58-2.69 7.27-5.47 11.08-8.02.44-.29.88-.6 1.32-.91 1.54-1.07 3.13-2.17 4.83-2.93 1.78-.8 4.24-.98 6.73-.53 1.67.3 5.76 1.3 7.78 4.13 1.88 2.64 2.82 5.7 3.72 8.65.19.62.38 1.24.58 1.86.8 2.49 1.59 4.99 2.37 7.49.39 1.25.77 2.5 1.16 3.76.16.53.31 1.06.44 1.6.02.1.06.23.1.37.19.64.33 1.17.24 1.59.23 1.92.07 3.54-.47 4.83-.62 1.47-2.34 2.69-3.32 3.3-1.88 1.17-4.16 1.78-6.58 1.78Zm-18.1-8.85c1.32 0 2.38.14 3.34.43 2.05.63 3.67 2.01 5.24 3.35.88.75 1.79 1.52 2.76 2.14.89.57 1.88 1.03 2.95 1.36 1.23.38 2.52.57 3.82.57 2.24 0 4.33-.56 6.05-1.63 1.49-.92 2.55-1.95 2.92-2.83.48-1.15.61-2.63.39-4.42v-.12l.02-.11c.05-.18-.14-.83-.22-1.1-.05-.17-.09-.32-.12-.43-.12-.52-.26-1.03-.42-1.54-.38-1.25-.77-2.5-1.15-3.75-.78-2.5-1.57-4.99-2.37-7.48-.2-.62-.39-1.24-.58-1.87-.88-2.88-1.79-5.85-3.58-8.36-1.25-1.75-3.92-3.14-7.14-3.72-2.28-.41-4.57-.25-6.15.46-1.61.72-3.16 1.8-4.66 2.84-.45.31-.9.62-1.34.92-3.78 2.54-7.47 5.31-11.03 7.99l-1.58 1.19c-.8.6-1.63 1.23-2.28 1.97-.86 1-1.26 2.28-1.16 3.69.14 2.11.95 4.24 2.2 5.84 2.15 2.74 5.79 4.55 9.5 4.72.88.04 1.77 0 2.66-.04.65-.03 1.29-.06 1.93-.06Z"/></g><g id="i" data-name="logo"><path id="j" data-name="logo-stroke" d="M75.47 37.47c-.18-.46-.18-.91.26-1.05.15-.05.32-.03.47 0 2.46.4 4.67 2.09 5.72 4.36.68 1.48.87 3.13 1.39 4.66.52 1.54 1.53 3.07 3.1 3.51 1.25.35 2.57-.08 3.76-.61 1.98-.88 3.82-2.06 5.46-3.48.6-.52 1.19-1.11 1.44-1.87.33-1.04-.06-2.17-.55-3.15-2.31-4.61-6.74-7.92-11.6-9.64-4.85-1.72-10.11-1.97-15.25-1.64-4.03.26-8.12.89-11.71 2.74-3.6 1.84-6.66 5.05-7.53 9-.29 1.32-.34 2.7-.85 3.95-.91 2.23-3.08 3.62-5.01 5.04a41.67 41.67 0 0 0-5.82 5.2c-.6.65-1.21 1.41-1.19 2.29.02.65.39 1.22.77 1.74 2.36 3.16 5.95 5.37 9.83 6.05 1.29.23 2.67.28 3.88-.23 1.06-.44 1.9-1.27 2.72-2.09 3.04-3.03 6.18-6.22 7.45-10.32.4-1.29.61-2.65 1.14-3.89.53-1.24 1.48-2.41 2.79-2.74 2.57-.65 3.3 2.48 4.61 3.97 1.68 1.91 3.91 3.18 6.24 4.13 3.82 1.57 6.65 5.11 11.29 5.3 1.89.08 2.54 2.29 2.75 4.16.54 4.77-2.79 9.73-8.11 10.71-4.58.84-7.05 3.1-8.41 7.39-1.23 3.88-3.83 7.01-6.55 10.01-.84.93-2.24 1.86-1.29 3.39.68 1.09 1.93.87 3.05.69 9.87-1.53 18.98.96 27.82 5.16 4.75 2.26 5.46 1.86 8.84-2.43 14.96-18.99 15.83-46.55.84-66.65C97.12 17.6 83.11 10.16 66.31 8.51c-17.67-1.74-33.09 4.13-45.87 16.01A55.266 55.266 0 0 0 5.93 46.7c-.9 2.55-1.91 5.07-3.11 8.12-.28.7-1.33.49-1.31-.27.1-4.3 1.19-7.77 2.46-11.16C13.78 17.29 39.4-.53 70.33 1.69c28.08 2.02 50.06 21.84 56.58 45.69 5.08 18.55 1.51 35.53-9.3 51.45-9.54 14.05-22.47 22.76-38.72 26.37-13.52 3-27.02 2.31-39.96-3.2-9.26-3.94-17.98-8.85-25.7-15.4-1.52-1.3-2.99-2.7-4.29-4.21-2.15-2.5-1.61-5.66 1.47-6.15 3.79-.61 5.8-1.98 6.96-5.78.62-2.06 3.12-2.8 5.67-1.44 3.18 1.7 6.03 3.78 8.65 6.21 1.03.96 2.23 2.09 3.7 2.29 1.41.19 2.56-.87 3.93-1.06 1.55-.21 3.14.09 4.68.32 4.88.75 10.64.88 14.76-2.3 6.06-4.67 11.83-9.35 14.14-17.21 1.16-3.94 4.58-5.71 8.6-6.42 3.21-.56 5.97-1.97 6.61-5.64.29-1.65 0-3.43-1.83-3.83-6.89-1.49-12.04-6.4-18.3-9.09-1.56-.67-1.93.54-2.21 1.83-.62 2.9-3.85 4.31-5.77 6.57-1.44 1.68-2.2 3.93-3.92 5.32-1.53 1.23-3.6 1.58-5.57 1.58-6.15 0-12.21-3.22-15.68-8.31-.54-.79-1.03-1.67-1.08-2.63-.08-1.56 1.03-2.91 2.15-4 3.73-3.59 8.56-6.32 10.79-10.99 1.05-2.2 1.43-4.69 2.64-6.8 1.42-2.48 3.85-4.21 6.36-5.56 10.38-5.6 23.51-5.71 33.99-.28 4.09 2.12 7.89 5.18 9.78 9.39 1.27 2.84 1.48 6.46-.5 8.86-1.21 1.46-3.03 2.25-4.74 3.08-2.71 1.32-5.65 2.91-8.56 2.15-2.85-.75-4.66-3.54-5.79-6.27-1.13-2.73-1.91-5.71-3.87-7.9-.2-.23-.4-.54-.52-.84" style="stroke-width:3px;stroke:currentColor;stroke-miterlimit:10"/></g><g id="k" data-name="logo-hand"><path id="l" data-name="logo-stroke-hand" d="M92.85 12.84c-.38.09-.58.5-.47.88.53 1.81 2.2 2.4 3.39 3.22 4.62 3.21 8.64 7.06 12.34 11.24 6.17 6.98 10.33 15.16 12.55 24.13 3.55 14.33.73 27.9-6.09 40.74-2.31 4.35-5.28 8.24-8.68 11.84-2 2.12-3.74 2.74-6.27 1.1-2.12-1.38-4.32-2.67-6.66-3.62-6.19-2.52-12.63-4.05-19.36-3.53-8.66.67-17.22 2.47-25.96 2.03-.87-.04-1.83.03-2.63.35-1.27.51-1.61 1.58-.6 2.61 1.63 1.66 3.76 2.41 6.05 2.48 3.12.1 6.21.05 9.32-.58 4.07-.82 8.1-.69 12.79 1.07.62.23.58 1.13-.06 1.3-8.39 2.25-15.9 3.91-23.82 3.54-5.77-.26-10.33-2.71-13.71-7.21-2.16-2.88-4.59-5.46-7.11-7.98-1.28-1.28-2.67-2.42-4.46-2.84-.58-.13-1.36-.06-1.84.25-.89.57-.75 1.54-.38 2.4.72 1.7 2.21 2.76 3.38 4.1 1.94 2.22 3.81 4.49 5.69 6.76.46.55-.16 1.36-.81 1.05-3.34-1.55-6.27-3.51-9.21-5.45-1.67-1.1-3.35-2.36-5.52-1.92-1.27.26-1.94 1.11-1.19 2.43.32.56.82 1.06 1.33 1.47 10.88 8.78 22.61 15.81 36.5 18.84 22.92 4.99 51.84-3.76 65.72-26.71 11.33-18.73 13.25-37.51 3.93-57.3-4.68-9.93-12.09-17.63-20.88-23.98-2.03-1.47-4.27-3.42-7.28-2.72" fill="var(--color-logo-paw)" style="stroke:currentColor;stroke-miterlimit:10;stroke-width:2px;fill:var(--color-logo-paw)"/></g></svg>