<svg data-name="Слой 1" xmlns="http://www.w3.org/2000/svg" viewBox="0 0 2368 515.29"><path d="M258.61 0C115.79 0 0 115.79 0 257.64s115.79 257.64 258.61 257.64 259.57-114.83 259.57-257.64S402.39 0 258.61 0ZM2012.9 444.84c0 32.81-26.05 58.86-58.86 58.86s-58.86-26.05-58.86-58.86c0-135.09 0-274.05-1.93-409.14 0-35.7 18.33-28.95 38.6-11.58l316.51 252.82-1.93-206.5c0-32.81 26.05-58.86 58.86-58.86 31.84-.96 60.79 25.09 61.76 57.9l.96 407.21c0 40.53-23.16 28.95-39.56 15.44l-315.54-251.85v204.57ZM1447.43 0c198.78 0 359.93 115.79 359.93 257.64s-161.15 257.64-359.93 257.64-363.79-114.83-363.79-257.64S1247.69 0 1447.43 0Zm0 121.58c132.2 0 237.38 60.79 237.38 136.06S1579.63 393.7 1447.43 393.7s-240.27-60.79-240.27-136.06 107.11-136.06 240.27-136.06Zm-795.12 6.75c-31.84 0-58.86-26.05-58.86-58.86s27.02-58.86 58.86-58.86h370.54c23.16 0 37.63 11.58 16.4 38.6L784.5 385.98h205.54c32.81 0 58.86 27.02 58.86 58.86s-26.05 58.86-58.86 58.86l-405.28 1.93c-26.05 0-26.05-18.33-12.54-35.7l257.64-339.66-177.55-1.93Zm-393.7-6.75c-75.27 0-137.02 60.79-137.02 136.06s61.76 137.02 137.02 137.02S396.6 332.9 396.6 257.64s-61.76-136.06-137.99-136.06Z" style="fill-rule:evenodd" data-name="Слой_1"/></svg>