<svg data-name="katman 1" xmlns="http://www.w3.org/2000/svg" viewBox="0 0 444 82.1"><defs><clipPath id="a"><path d="M125.8 80.2c22.2 0 40.1-17.9 40.1-40.1S148 0 125.8 0 85.7 17.9 85.7 40.1c-.2 22.2 18 40.1 40.1 40.1Z" style="fill:none"/></clipPath></defs><path d="M208.6 69.5h8.8l12.3-45.7v45.7h9.9V9.1H226l-12.3 44.3-12.3-44.3h-13.9v60.4h8.5V23.8l12.6 45.7ZM281 39.6c0-10.7-5.3-14.7-16.3-14.7-6.9 0-12.3 2.1-15.5 4v8.5c2.7-2.1 8.8-4.3 14.2-4.3 5.1 0 7.2 1.9 7.2 6.4v2.4H269c-15.8 0-23 5.3-23 14.2S251.3 70 259.4 70c6.1 0 8.8-1.9 10.7-4h.5c0 1.1.5 2.7.8 3.5h10.2c-.3-3.5-.5-7.2-.5-10.7-.1 0-.1-19.2-.1-19.2Zm-10.4 19.5c-1.3 1.9-3.7 3.5-7.5 3.5-4.3 0-6.4-2.7-6.4-6.4 0-5.1 3.5-6.9 12.6-6.9h1.6v9.9h-.3v-.1Zm28.3-33.4h-9.6v56.4h10.4V64.5c2.7 4 6.4 5.9 11 5.9 10.2 0 17.1-8 17.1-22.7S321.1 25 311.2 25c-4.8 0-8.8 2.1-11.8 6.4.1-.1-.5-5.7-.5-5.7Zm8.9 36.6c-5.3 0-8.3-4.5-8.3-14.4s2.9-14.7 8.8-14.7 8.5 4.5 8.5 14.4-2.9 14.7-9 14.7Zm52.3 7.2h11.8L355.3 46 370 25.7h-10.4L344.9 46V25.7h-10.4v43.8h10.4V48.1l15.2 21.4Zm46.5-2.9v-8.5c-3.2 2.1-8.5 4-13.6 4-7.5 0-10.4-3.5-11-11h24.8v-5.6c0-15.2-6.7-20.8-17.1-20.8-12.6 0-18.7 9.6-18.7 23 0 15.2 7.5 22.7 20.6 22.7 7.3-.1 12.1-1.7 15-3.8Zm-16.8-33.4c5.1 0 6.7 4.3 6.7 9.6v.8H382c.3-6.9 3-10.4 7.8-10.4Zm54.2.8v-8.3h-34.7V34h12.3v35.5H432V34h12Z"/><path d="M125.8 80.2c22.2 0 40.1-17.9 40.1-40.1S148 0 125.8 0 85.7 17.9 85.7 40.1c-.2 22.2 18 40.1 40.1 40.1Z" style="fill:#fed42b"/><circle cx="40.1" cy="40.1" r="40.1" style="fill:#fc3f1d"/><path d="M45.9 22.5h-4c-6.9 0-10.4 3.5-10.4 8.8 0 5.9 2.4 8.8 7.5 12.3l4 2.9-11.5 17.9h-9.4l11-16.3c-6.4-4.5-9.9-8.8-9.9-16.3 0-9.4 6.4-15.8 18.7-15.8h12.3v48.1h-8V22.4h-.3v.1Z" style="fill:#fff"/><path d="M106.1 22 70.8 68.2l9.4 10.7 26.2-34.7-2.7 19 14.7 5.1 17.9-28.6c-.8 5.3-2.1 17.6 9.6 21.4 18.4 5.6 34.5-27.5 41.9-44.3l-10.7-5.6c-8.3 17.4-21.1 36.6-26.2 35.3s-.5-17.6 2.4-28.1v-.3L137 12.5l-19.5 31.8 2.7-17.4-14.1-4.9Z" style="clip-path:url(#a)"/></svg>