<?xml version="1.0" standalone="no"?>
<!DOCTYPE svg PUBLIC "-//W3C//DTD SVG 20010904//EN"
 "http://www.w3.org/TR/2001/REC-SVG-20010904/DTD/svg10.dtd">
<svg version="1.0" xmlns="http://www.w3.org/2000/svg"
 width="524.000000pt" height="524.000000pt" viewBox="0 0 524.000000 524.000000"
 preserveAspectRatio="xMidYMid meet">
<metadata>
Created by potrace 1.14, written by Peter Selinger 2001-2017
</metadata>
<g transform="translate(0.000000,524.000000) scale(0.100000,-0.100000)"
fill="#000000" stroke="none">
<path d="M2395 5184 c-380 -39 -677 -121 -980 -269 -467 -228 -835 -566 -1106
-1018 -175 -290 -309 -673 -309 -879 0 -64 31 -98 88 -98 55 0 71 22 137 195
129 336 149 383 192 465 185 347 444 627 798 860 547 360 1217 453 1890 263
583 -165 1079 -582 1350 -1136 205 -418 267 -902 174 -1365 -40 -202 -124
-431 -224 -612 -98 -176 -258 -387 -308 -404 -33 -12 -77 2 -236 74 -370 168
-748 232 -1067 180 -33 -5 -62 -6 -67 -1 -5 5 21 41 58 82 135 149 216 279
270 432 43 122 123 189 271 226 112 28 175 61 244 127 100 95 145 210 138 349
-6 113 -43 190 -108 223 -24 12 -60 22 -80 22 -50 1 -130 36 -240 107 -52 34
-139 82 -192 107 -125 60 -188 111 -242 195 -72 112 -133 146 -214 120 -90
-28 -135 -90 -178 -239 -32 -116 -69 -190 -130 -267 -67 -84 -214 -232 -249
-250 -63 -34 -198 -10 -314 54 -79 44 -191 153 -191 186 0 31 140 167 276 270
162 121 193 166 225 323 25 123 60 194 135 269 135 135 329 198 654 212 225 9
419 -19 572 -84 149 -63 299 -188 366 -305 48 -83 49 -99 10 -144 -61 -70
-245 -174 -308 -174 -28 0 -74 43 -93 87 -9 21 -26 76 -38 121 -37 143 -124
244 -248 287 -79 27 -123 17 -150 -34 -19 -34 -7 -74 43 -144 26 -37 69 -123
104 -208 66 -163 114 -243 176 -293 66 -54 105 -69 186 -74 93 -5 179 21 351
109 192 98 254 185 252 354 -2 136 -64 270 -180 390 -246 253 -693 402 -1103
366 -387 -35 -761 -214 -873 -419 -15 -27 -43 -96 -63 -153 -20 -57 -44 -120
-55 -140 -31 -61 -110 -149 -205 -229 -240 -201 -283 -248 -304 -333 -17 -64
6 -134 71 -221 72 -95 175 -178 294 -236 141 -69 204 -84 355 -84 192 1 261
36 356 182 37 57 97 127 175 202 98 96 120 124 135 168 10 28 22 52 27 52 15
0 114 -54 272 -148 185 -110 290 -161 395 -192 41 -12 81 -30 88 -39 17 -22 7
-85 -24 -138 -29 -50 -95 -85 -200 -107 -220 -46 -328 -137 -389 -326 -62
-196 -196 -360 -466 -575 -153 -122 -231 -150 -424 -149 -66 0 -154 6 -195 14
-117 20 -195 18 -272 -10 -84 -29 -95 -25 -209 76 -92 82 -278 211 -349 243
-140 62 -263 18 -305 -108 -35 -107 -93 -153 -228 -181 -100 -20 -157 -87
-157 -182 1 -84 28 -131 148 -248 378 -372 1094 -756 1607 -863 211 -44 296
-52 550 -51 191 0 268 5 375 21 759 118 1318 440 1748 1007 383 505 578 1074
559 1631 -13 372 -95 700 -256 1030 -249 508 -649 910 -1161 1169 -265 135
-506 211 -805 257 -125 20 -515 34 -620 23z m1436 -555 c85 -29 346 -232 517
-402 211 -208 330 -372 452 -622 119 -242 187 -457 226 -710 23 -150 23 -442
0 -590 -62 -396 -246 -828 -494 -1158 -374 -497 -1012 -839 -1695 -908 -174
-17 -510 -7 -662 20 -503 90 -973 315 -1477 708 -114 89 -140 119 -117 134 21
13 65 11 103 -5 18 -7 95 -54 172 -103 176 -114 303 -183 337 -183 15 0 36 9
47 20 40 40 28 67 -96 216 -64 76 -142 166 -174 199 -53 55 -90 110 -90 134 0
22 42 21 93 -2 62 -28 211 -173 335 -327 228 -282 376 -365 672 -377 223 -9
448 20 775 101 139 34 183 49 197 66 38 47 18 91 -54 118 -150 56 -340 65
-568 28 -76 -13 -144 -17 -245 -14 -151 4 -196 17 -260 72 -53 46 -27 52 227
59 165 4 303 15 533 43 389 46 571 50 744 16 219 -44 422 -123 623 -242 145
-86 211 -78 326 39 248 254 449 606 566 994 116 383 128 772 35 1146 -44 179
-91 306 -173 476 -126 258 -257 436 -486 666 -137 138 -253 236 -370 313 -36
24 -74 53 -84 65 -19 21 -19 21 6 21 14 0 40 -5 59 -11z"/>
</g>
</svg>
